<svg width="121" height="167" viewBox="0 0 121 167" fill="none" xmlns="http://www.w3.org/2000/svg">
<g filter="url(#filter0_d_174_114)">
<path d="M64.805 38.7606L76.3683 47.248L71.8527 59.8577L55.64 58.1361L64.805 38.7606Z" fill="#473834"/>
<path d="M36.0798 52.0956C35.631 51.0277 45.5644 30.5769 45.5644 30.5769L64.8049 38.7607L56.1858 60.0593L36.0798 52.0956Z" fill="#725A52"/>
<path d="M53.0443 68.6051C53.2291 68.4507 64.8018 61.2417 68.7082 56.1232C75.0238 47.8481 76.4402 34.6495 76.4402 34.6495L79.4099 33.4401C79.4099 33.4401 86.2866 39.671 84.8451 48.424C83.4037 57.1771 80.5358 61.4353 72.5307 66.9926C63.792 73.059 53.8851 71.3139 53.8851 71.3139L53.0443 68.6051Z" fill="#E5CA2E"/>
<path d="M79.2803 33.5486C81.2015 36.0817 83.8031 40.7192 82.8626 46.4312C81.4212 55.1841 78.5533 59.4425 70.548 64.9998C63.8212 69.6696 56.4031 69.7106 53.3438 69.482L53.9247 71.3536C53.9247 71.3536 63.8316 73.0986 72.5703 67.0323C80.5756 61.475 83.4435 57.2166 84.8849 48.4637C86.3262 39.7106 79.4497 33.4796 79.4497 33.4796L79.2803 33.5486Z" fill="#E0A32B"/>
<path d="M76.4403 34.6494L74.2244 29.7018L76.0098 28.209L79.4101 33.44L76.4403 34.6494Z" fill="#E5CA2E"/>
<path d="M72.6045 28.2713C72.5181 29.2905 73.1777 30.5769 73.1777 30.5769L77.7431 28.4776L76.4383 26.4862L72.6045 28.2713Z" fill="#E5CA2E"/>
<path d="M53.8852 71.3138L53.0443 68.605L55.64 68.1405L55.1148 70.5153L53.8852 71.3138Z" fill="#60443E"/>
<path d="M73.5689 29.3303C73.7977 29.3253 74.0158 29.2467 74.2284 29.1694C74.7323 28.9858 75.2364 28.8021 75.7291 28.5948C76.0529 28.4585 76.4265 28.2192 76.3606 27.8983C76.3172 27.6872 76.0805 27.5461 75.8472 27.5251C75.614 27.5039 75.3839 27.5765 75.1648 27.6523C74.6139 27.8429 73.6263 28.0722 73.192 28.4372C72.7834 28.7806 72.9002 29.345 73.5689 29.3303Z" fill="#FFF431"/>
<path d="M57.5092 67.4377C60.634 65.7344 63.735 63.9676 66.525 61.8308C69.3148 59.6938 71.7992 57.1652 73.4575 54.1994C73.6038 53.9376 73.7468 53.6609 73.7468 53.3668C73.7468 53.0727 73.5609 52.7577 73.2493 52.6872C72.9235 52.6136 72.606 52.8196 72.36 53.029C71.4639 53.7931 70.806 54.7562 70.1012 55.6733C67.1947 59.4555 63.3855 62.5602 59.3971 65.3562C58.8738 65.7231 58.2813 66.0519 57.784 66.4422C57.6162 66.5738 57.4726 66.5919 57.3812 66.8033C57.3546 66.8649 57.338 67.5308 57.5092 67.4377Z" fill="#FFF431"/>
<path d="M74.1102 50.9202C74.4091 50.9571 74.7045 50.7963 74.8889 50.5774C75.0735 50.3587 75.1679 50.0889 75.2563 49.8245C75.8473 48.0575 76.3243 46.2588 76.6841 44.4406C76.7661 44.0263 76.8418 43.5985 76.744 43.187C76.7171 43.0744 76.6747 42.96 76.5863 42.8781C76.3831 42.6897 76.0264 42.7505 75.7906 42.9035C75.314 43.2121 75.1355 43.773 74.9886 44.2906C74.4653 46.1336 73.9419 47.9768 73.4187 49.8198C73.3862 49.9339 73.3539 50.0546 73.389 50.1682C73.4632 50.4079 73.8144 50.8836 74.1102 50.9202Z" fill="#FFF431"/>
<path d="M75.2916 29.6049C75.2916 29.6049 75.0839 29.0061 76.4093 30.7283C77.7347 32.4505 78.6532 33.5435 78.6532 33.5435C78.6532 33.5435 78.7535 33.4209 79.4841 34.012C80.2148 34.6029 80.4414 34.6071 80.4414 34.6071L79.4102 33.4399L76.5431 29.0294L75.2916 29.6049Z" fill="#E0A32B"/>
<path d="M77.7432 28.4776L76.9341 28.3894L75.7295 26.8163L76.4385 26.4862L77.7432 28.4776Z" fill="#E0A32B"/>
<path d="M29.7432 62.5749C29.9885 62.5303 43.9605 61.8497 50.1923 59.3221C60.2669 55.236 68.9279 44.6127 68.9279 44.6127L72.1518 44.9863C72.1518 44.9863 74.5202 53.5799 68.3468 60.3868C62.1734 67.1938 57.3161 69.4777 47.3292 70.4369C36.4271 71.4839 28.934 65.2919 28.934 65.2919L29.7432 62.5749Z" fill="#E5CA2E"/>
<path d="M71.9795 45.0176C72.1941 48.0966 71.8032 53.299 67.7745 57.7411C61.6014 64.5481 56.7438 66.832 46.7569 67.7912C38.3649 68.5972 31.9936 65.1141 29.5043 63.4673L28.9453 65.3445C28.9453 65.3445 36.4385 71.5365 47.3405 70.4895C57.3274 69.5303 62.185 67.2464 68.3583 60.4393C74.5315 53.6325 72.1633 45.0388 72.1633 45.0388L71.9795 45.0176Z" fill="#E0A32B"/>
<path d="M68.928 44.6127L69.8238 39.3278L72.194 38.8971L72.1518 44.9862L68.928 44.6127Z" fill="#E5CA2E"/>
<path d="M69.2449 37.3353C68.5955 38.1667 68.4342 39.5804 68.4342 39.5804L73.526 39.9491L73.5332 37.6263L69.2449 37.3353Z" fill="#E5CA2E"/>
<path d="M28.934 65.2917L29.7432 62.575L32.2266 63.4083L30.4368 65.1917L28.934 65.2917Z" fill="#60443E"/>
<path d="M69.4725 38.699C69.6711 38.803 69.902 38.8395 70.1278 38.8739C70.6626 38.9559 71.1977 39.0377 71.7364 39.094C72.0904 39.131 72.5452 39.1035 72.6699 38.7974C72.7519 38.5962 72.6288 38.3631 72.4411 38.2345C72.2534 38.1058 72.0157 38.0587 71.7853 38.0197C71.2061 37.9216 70.2317 37.6494 69.6539 37.7559C69.1104 37.8561 68.892 38.3943 69.4725 38.699Z" fill="#FFF431"/>
<path d="M34.2229 63.6933C37.8585 63.7178 41.5092 63.6765 45.1027 63.171C48.6962 62.6655 52.2491 61.6799 55.3421 59.9284C55.6151 59.7738 55.8936 59.6048 56.0597 59.3532C56.2256 59.1014 56.2443 58.7436 56.0175 58.5355C55.7802 58.3181 55.3921 58.3435 55.0637 58.4064C53.8655 58.6352 52.759 59.1474 51.6381 59.598C47.0165 61.4561 42.0044 62.3065 37.0132 62.8078C36.3584 62.8736 35.6657 62.8741 35.0198 62.9722C34.802 63.0053 34.6688 62.9527 34.4713 63.0901C34.4137 63.1301 34.0238 63.692 34.2229 63.6933Z" fill="#FFF431"/>
<path d="M57.7513 57.4317C57.9862 57.6052 58.3298 57.6076 58.6112 57.5079C58.8926 57.4083 59.1255 57.2221 59.3503 57.0378C60.8532 55.806 62.2766 54.493 63.6107 53.1076C63.9147 52.792 64.2209 52.4617 64.3695 52.0634C64.4101 51.9543 64.4383 51.8362 64.4089 51.7241C64.3413 51.4666 64.0018 51.3494 63.7135 51.3683C63.1315 51.4066 62.6622 51.8018 62.2444 52.1752C60.7564 53.5042 59.2683 54.8332 57.7803 56.1623C57.6883 56.2445 57.5924 56.3324 57.5583 56.4463C57.4869 56.6864 57.5189 57.2601 57.7513 57.4317Z" fill="#FFF431"/>
<path d="M70.7915 39.751C70.7915 39.751 70.9517 39.1401 71.1142 41.2424C71.2765 43.3446 71.4455 44.7158 71.4455 44.7158C71.4455 44.7158 71.6006 44.6584 71.8922 45.5106C72.184 46.363 72.3755 46.4742 72.3755 46.4742L72.1517 44.9862L72.1873 39.8521L70.7915 39.751Z" fill="#E0A32B"/>
<path d="M73.526 39.9491L72.8834 39.49L72.7404 37.5723L73.5333 37.6261L73.526 39.9491Z" fill="#E0A32B"/>
<path d="M92.2365 0C93.7545 0.210643 95.2945 0.287758 96.8284 0.230145C97.923 9.84955 99.0175 19.4688 100.112 29.0882C100.325 30.958 100.514 32.9505 99.5787 34.6233C98.6427 36.2962 96.1165 37.3545 94.4674 36.2368C93.0571 35.2809 93.0172 33.3948 93.1125 31.7892C93.4103 26.7752 94.449 21.9991 94.189 16.996C94.1044 15.3695 93.4812 0.172537 92.2365 0Z" fill="#568E4C"/>
<path d="M105.884 8.13008C106.426 7.05146 106.71 3.72957 108.004 3.79339C109.473 3.86582 110.898 4.68782 111.511 5.73423C107.645 15.9136 103.779 26.0929 99.9127 36.2723C99.1669 38.2355 96.2146 41.8616 94.7465 38.4882C93.6773 36.0312 95.7095 31.7299 96.464 29.4303C98.8755 22.0797 102.387 15.0867 105.884 8.13008Z" fill="#73BA65"/>
<path d="M111.168 15.2639C111.975 15.6046 112.783 15.9453 113.591 16.286C108.651 26.7549 103.102 36.982 96.9745 46.9095C95.2493 49.7047 93.4007 52.5571 90.5776 54.4592C90.188 54.7217 89.7382 54.9748 89.2574 54.9286C85.8278 54.5991 90.5991 41.8967 91.7709 39.7925C94.6864 34.5576 98.6885 29.4744 102.507 24.7767C103.235 23.8803 110.342 14.9157 111.168 15.2639Z" fill="#568E4C"/>
<path d="M90.603 9.62006C91.5475 9.07992 92.8645 9.55594 93.5235 10.3786C94.1826 11.2013 94.3525 12.2597 94.5025 13.2711C94.9767 16.471 95.4513 19.6745 95.6537 22.8984C96.1068 30.1155 95.1922 37.3393 94.2788 44.5208C93.8541 47.861 93.4476 53.0339 90.2703 55.3052C86.8012 57.785 86.9361 53.9243 87.2894 51.7896C88.7508 42.9589 89.9142 34.1514 90.3716 25.22C90.5087 22.5435 90.5956 19.8649 90.6324 17.1855C90.6442 16.3017 90.0209 9.95288 90.603 9.62006Z" fill="#73BA65"/>
<path d="M88.0343 22.9741C89.8167 23.5164 91.599 24.0586 93.3815 24.6009C93.6832 33.9667 92.6953 43.3668 90.449 52.5075C94.2739 43.3154 100.214 34.8682 107.768 27.8797C109.282 28.9517 110.796 30.0236 112.31 31.0956C108.438 34.7155 105.757 39.2394 103.126 43.6994C97.8171 52.7018 92.4616 61.8093 89.5889 71.6987C88.8463 74.2551 88.2482 76.9099 86.7067 79.1465C83.8017 83.3619 75.4833 84.4575 74.9617 77.9779C74.8026 76.0006 76.4024 74.0596 77.1484 72.2917C78.4195 69.2788 79.2711 66.0642 80.1935 62.9495C84.0681 49.8673 86.697 36.4746 88.0343 22.9741Z" fill="#568E4C"/>
<path d="M95.5338 39.6156C99.0501 35.6287 103.082 32.0246 107.519 28.9031C101.625 34.4761 95.5719 40.2775 92.6597 47.5661C92.7031 46.1209 92.7883 44.505 93.1651 43.0963C93.5151 41.7872 94.6285 40.6421 95.5338 39.6156Z" fill="#73BA65"/>
<path d="M69.8464 58.8003C71.4643 57.8465 72.5932 58.2749 74.7526 57.243C75.0078 57.121 75.0718 57.7436 75.2835 57.9221C75.583 58.1753 74.7634 58.714 74.6329 59.0677C74.5022 59.4213 74.2274 59.7125 73.951 59.9867C72.4388 61.4872 70.1091 63.6651 67.7972 63.9762C67.2197 64.0539 63.583 64.7979 63.8229 64.1447C64.5061 62.2836 67.0579 61.7636 67.5351 61.3168C68.5747 60.3435 68.1817 59.7813 69.8464 58.8003Z" fill="#AD3E3B"/>
<path d="M69.9809 62.2274C67.8063 63.7518 62.4176 62.6251 61.7274 67.2064C61.0373 71.7878 66.634 78.6855 70.9897 80.4128C75.3455 82.1403 80.9977 79.5362 84.2867 77.3424C88.1278 74.7804 92.44 69.2569 88.4533 63.1085C84.9655 57.7298 80.0128 54.2009 74.977 57.1113C71.91 58.8839 73.5427 59.7305 69.9809 62.2274Z" fill="#D34D46"/>
<path d="M78.2976 56.0756C80.6588 57.2463 82.8223 59.5102 84.6033 62.257C88.5902 68.4054 84.278 73.9289 80.4367 76.4909C77.9128 78.1745 73.9968 80.0993 70.3433 80.1232C70.561 80.2314 70.7769 80.3284 70.9897 80.4128C75.3455 82.1403 80.9977 79.5362 84.2867 77.3424C88.128 74.7804 92.44 69.2569 88.4533 63.1085C85.7383 58.9218 82.1359 55.8564 78.2976 56.0756Z" fill="#AD3E3B"/>
<path opacity="0.27" d="M64.7591 68.4754C64.6516 69.6246 65.0067 70.7893 65.6491 71.7811C66.0235 72.3594 66.5174 72.9019 67.1831 73.1846C67.8489 73.467 68.7111 73.4333 69.2408 72.9679C69.3765 72.8486 69.4888 72.7013 69.5329 72.5337C69.5947 72.2978 69.5166 72.0522 69.4392 71.8201C69.0755 70.7296 68.7122 69.5834 68.9559 68.465C69.0722 67.931 69.3237 67.4264 69.4197 66.889C69.5157 66.3517 69.4189 65.7346 68.9618 65.387C68.256 64.85 66.9355 65.16 66.2736 65.6188C65.3604 66.2521 64.8538 67.4657 64.7591 68.4754Z" fill="white"/>
<path opacity="0.27" d="M69.5782 74.2333C69.1348 74.5159 69.0679 75.1507 69.3755 75.5578C69.6831 75.9647 70.2762 76.1395 70.8099 76.0639C71.0922 76.024 71.3863 75.9032 71.5093 75.6668C71.5984 75.4956 71.5819 75.2936 71.5324 75.1094C71.4409 74.7689 71.235 74.4465 70.9221 74.2448C70.609 74.0431 70.1838 73.977 69.8324 74.1155L69.5782 74.2333Z" fill="white"/>
<path d="M28.8308 37.4181L28.7657 37.3103C28.7267 37.3517 28.5121 37.2277 28.6766 37.3627C28.7274 37.381 28.7789 37.3996 28.8308 37.4181Z" fill="#ED9254"/>
<path d="M24.6093 56.0672C28.168 56.052 30.8506 51.3107 32.3221 48.7366C33.683 46.3563 35.7739 41.579 32.2834 39.049C31.2567 38.3049 29.8094 37.8423 28.6475 37.4265L29.0415 38.0797C28.0553 36.7419 25.7229 34.6487 24.3203 34.9766C22.8461 35.3214 20.8508 35.6675 19.5318 36.3365C14.62 38.8282 13.2968 41.4499 13.7752 46.1236C14.4109 52.3366 20.1319 56.0864 24.6093 56.0672Z" fill="#ED9254"/>
<path d="M24.58 55.9804C25.3761 55.9771 26.1281 55.7368 26.8326 55.3374C22.7 54.5894 18.1777 51.0252 17.6165 45.5414C17.1383 40.8678 18.4614 38.246 23.3732 35.7543C23.9586 35.4573 24.6773 35.2242 25.4246 35.0264C25.0143 34.8717 24.626 34.8115 24.2908 34.89C22.8167 35.2348 20.8214 35.5807 19.5024 36.2498C14.5906 38.7416 13.2674 41.363 13.7457 46.0368C14.3816 52.2498 20.1027 55.9998 24.58 55.9804Z" fill="#D8864E"/>
<path d="M23.844 56.0974C24.3253 56.0953 24.7903 56.0061 25.2385 55.8482C20.8899 55.493 15.7254 51.8187 15.1229 45.9335C14.6447 41.2599 15.9678 38.6381 20.8796 36.1464C21.8568 35.6507 23.2055 35.3324 24.4382 35.0604C24.1206 34.9698 23.8209 34.9446 23.5548 35.0069C22.0808 35.3516 20.0854 35.6978 18.7666 36.3667C13.8548 38.8585 12.5315 41.4801 13.0099 46.1538C13.6458 52.3668 19.3667 56.1166 23.844 56.0974Z" fill="#B77446"/>
<path d="M40.1498 54.38C40.1401 54.3681 40.131 54.3557 40.1211 54.3442C40.1295 54.3554 40.1394 54.3675 40.1498 54.38Z" fill="#D8864E"/>
<path d="M27.7797 67.3211C31.0588 67.2157 32.402 63.119 35.2971 61.6779C36.9621 60.8493 38.4434 59.7198 39.5184 58.2022C39.9793 57.5515 40.3153 55.9785 39.7952 55.1075L38.5724 54.5948C37.4697 54.0839 37.6066 55.8504 36.8711 54.694C37.5858 53.2387 37.7059 50.4621 38.463 48.9423C39.5517 46.7566 39.4197 43.4893 38.4305 40.9587C36.2477 35.3746 30.8168 32.3196 26.8579 33.2573C25.5939 33.5567 22.4764 35.3064 26.2377 36.1794C27.4511 36.461 28.7658 38.2325 29.6491 39.5656C32.803 44.3251 23.8878 50.2913 22.7626 52.0042C21.4683 53.9749 19.7757 56.4197 19.907 58.8467C20.0667 61.7995 23.2443 67.4669 27.7797 67.3211Z" fill="#D8864E"/>
<path d="M40.1498 54.3807C40.189 54.43 40.2253 54.4819 40.2583 54.5366L40.2623 54.5385C40.243 54.4881 40.191 54.4308 40.1498 54.3807Z" fill="#D8864E"/>
<path d="M27.4939 67.3624C27.8184 67.3522 28.1235 67.3021 28.4135 67.2198C24.405 66.6055 21.6664 61.5407 21.5185 58.805C21.3872 56.378 23.0798 53.9332 24.3741 51.9625C25.4993 50.2496 34.4145 44.2835 31.2606 39.5239C30.3773 38.1911 29.0626 36.4194 27.8492 36.1377C24.0879 35.2648 27.2054 33.515 28.4694 33.2156C28.5535 33.1957 28.6385 33.1783 28.7238 33.1619C27.979 33.0942 27.2537 33.1373 26.5723 33.2987C25.3083 33.5981 22.1908 35.3478 25.9521 36.2207C27.1653 36.5023 28.4801 38.2739 29.3635 39.6071C32.5174 44.3665 23.6022 50.3326 22.4768 52.0457C21.1825 54.0162 19.4899 56.461 19.6213 58.8882C19.7809 61.8407 22.9585 67.5084 27.4939 67.3624Z" fill="#B77446"/>
<path d="M40.0279 74.9092C43.1393 76.1189 43.4133 77.4035 45.8452 76.2648L48.5001 74.5765C50.653 72.4236 51.459 67.6631 50.0976 64.4038C49.0421 61.8767 46.3311 59.3856 43.6575 58.7806C41.9143 58.386 40.995 59.5779 39.7845 60.4244C38.3876 61.401 37.0222 62.4595 36.3091 64.0797C34.8007 67.5061 35.4663 73.1354 40.0279 74.9092Z" fill="#B77446"/>
<path d="M41.0777 81.2976C43.7445 80.9369 47.1602 78.2686 48.7249 75.2761C50.705 71.4892 47.5871 76.3157 41.5716 73.3797C39.9357 72.5813 38.9219 71.6933 38.2865 70.1418C37.3595 67.8785 38.4045 66.0407 39.7574 64.552C41.5998 62.5248 44.4475 59.2193 44.7421 56.0079C45.0603 52.5405 42.8046 50.2162 40.6706 48.5917C38.3339 46.8127 38.2654 50.7532 34.7173 55.6421C32.5597 58.6149 30.2561 61.0954 28.6007 63.1129C25.89 66.4165 25.4423 69.1357 27.0819 72.6095C28.3054 75.2017 32.454 82.4635 41.0777 81.2976Z" fill="#ED9254"/>
<path d="M38.8575 81.5304C33.9465 79.8799 31.3617 75.2722 30.4393 73.318C28.7997 69.8441 29.2472 67.1251 31.958 63.8214C33.6135 61.8039 35.9171 59.3233 38.0746 56.3506C40.1436 53.4996 41.0296 50.9719 41.8719 49.7121C41.4753 49.349 41.0646 49.0143 40.6583 48.7049C38.3216 46.9258 38.2529 50.8664 34.7048 55.7553C32.5474 58.728 30.2438 61.2086 28.5882 63.2261C25.8775 66.5298 25.4298 69.2488 27.0695 72.7227C28.1836 75.083 31.723 81.3144 38.8575 81.5304Z" fill="#D8864E"/>
<path d="M37.5774 81.3801C31.8451 80.1604 28.9 74.9397 27.9019 72.8253C26.2623 69.3514 26.7099 66.6323 29.4206 63.3287C31.0762 61.311 33.3798 58.8306 35.5372 55.8579C38.3226 52.0199 38.9638 48.7671 40.2412 48.4063C38.2674 47.336 38.0137 51.0999 34.6699 55.7073C32.5125 58.68 30.2088 61.1606 28.5533 63.1782C25.8426 66.4817 25.3949 69.2008 27.0346 72.6747C28.0819 74.8935 31.2725 80.5323 37.5774 81.3801Z" fill="#B77446"/>
<path d="M26.4217 61.7829C26.7345 61.638 27.2087 60.7008 27.407 60.3964C27.7755 59.8308 27.8702 59.2143 28.3535 58.7388C29.3906 57.7187 30.4572 57.1976 31.1833 55.8625C31.9948 54.3703 32.5639 52.8778 33.5873 51.5163C34.6163 50.1473 35.7361 48.7245 36.4014 47.1225C37.3647 44.8031 36.9789 41.2356 34.9622 39.0567L34.1239 37.9048C33.854 37.6961 32.8665 37.4215 32.5466 37.5597C31.9378 37.823 32.3267 38.4292 32.5017 38.9335C32.9108 40.1119 33.3615 41.3377 33.3448 42.5286C33.3258 43.887 32.9555 45.2373 32.4435 46.4303C31.8129 47.8996 30.2983 48.9796 29.2299 50.0774C28.0368 51.3032 26.7675 52.5205 25.8188 53.952C24.876 55.375 24.1383 56.6896 24.404 58.6198C24.5235 59.4855 25.1434 62.3746 26.4217 61.7829Z" fill="#ED9254"/>
<path d="M44.4315 73.2741C45.4047 73.4645 46.5597 73.4411 47.5187 73.6983C48.1164 73.8586 48.7814 73.4423 49.3301 73.5572C49.9218 72.8457 50.152 71.8288 50.5283 70.9589C51.242 69.3085 51.7447 67.4593 51.1992 65.5469C50.8049 64.1645 50.3002 62.6123 49.1307 61.5772C48.295 60.8376 47.2169 60.3425 46.2125 59.9921C44.8368 59.512 43.8861 60.3356 43.1857 61.4975C42.4354 62.7423 42.0463 63.631 41.2899 64.8797C40.4236 66.3101 39.3313 67.1292 40.017 69.1831C40.7291 71.3157 42.4849 72.8935 44.4315 73.2741Z" fill="#D8864E"/>
<path d="M49.4591 73.5875C49.4161 73.576 49.3732 73.5661 49.3301 73.5571C49.3042 73.5881 49.2788 73.6196 49.2515 73.6494L49.4591 73.5875Z" fill="#D8864E"/>
<path d="M47.8044 72.5404L48.279 72.6652C49.2113 73.0633 50.5847 71.3566 50.9068 70.4901C51.3163 69.3891 51.5942 67.8488 51.4776 66.5437C51.1676 63.0763 48.2138 61.4444 45.726 61.9956C43.2756 62.5383 42.4037 64.6907 42.7224 67.7313C43.1074 71.4063 45.5375 71.5356 47.8044 72.5404Z" fill="#ED9254"/>
<path d="M40.9634 59.7744C40.623 59.9397 40.4605 59.7198 40.2729 59.2305C40.0852 58.7413 39.9496 58.2657 40.2032 58.1513C40.4567 58.0368 40.8239 58.5992 40.9525 58.8918C41.0814 59.1845 41.2745 59.6233 40.9634 59.7744Z" fill="#FECC84"/>
<path d="M39.3128 63.0442C38.9056 62.9801 38.8775 62.7261 38.976 62.2562C39.0745 61.7866 39.2135 61.3558 39.5119 61.4099C39.8103 61.464 39.8375 62.0876 39.794 62.3777C39.7503 62.6678 39.685 63.1029 39.3128 63.0442Z" fill="#FECC84"/>
<path d="M34.1253 63.5072C33.9699 63.1124 34.1943 63.0278 34.6886 63.0119C35.1828 62.9959 35.6619 63.0269 35.7691 63.3177C35.8761 63.6087 35.3036 63.777 35.0075 63.803C34.7114 63.829 34.2672 63.8677 34.1253 63.5072Z" fill="#FECC84"/>
<path d="M36.2286 62.0202C36.3256 61.6469 36.579 61.7207 37.0347 62.0039C37.4905 62.287 37.9045 62.5944 37.8262 62.8649C37.748 63.1356 37.1301 62.9142 36.8472 62.7563C36.5643 62.5983 36.14 62.3614 36.2286 62.0202Z" fill="#FECC84"/>
<path d="M38.9132 60.042C39.056 60.4397 38.8276 60.5162 38.3306 60.5156C37.8334 60.5152 37.353 60.4684 37.2552 60.1758C37.1574 59.8829 37.7382 59.7346 38.0366 59.7187C38.3348 59.7027 38.7824 59.6787 38.9132 60.042Z" fill="#FECC84"/>
<path d="M37.4141 65.9003C37.1838 66.1935 36.9585 66.0387 36.6078 65.6277C36.2569 65.2165 35.9564 64.7993 36.1312 64.5894C36.3062 64.3794 36.8402 64.794 37.0642 65.0335C37.2884 65.2729 37.6244 65.6322 37.4141 65.9003Z" fill="#FECC84"/>
<path d="M35.7641 41.2462C35.5407 41.5453 35.3131 41.3945 34.9548 40.9896C34.5967 40.5845 34.2884 40.1721 34.4583 39.9579C34.6282 39.7437 35.1691 40.1485 35.3974 40.384C35.6257 40.6196 35.9681 40.973 35.7641 41.2462Z" fill="#FECC84"/>
<path d="M35.6809 45.1198C35.3076 45.2204 35.1807 44.9821 35.0743 44.4813C34.968 43.9804 34.9122 43.5017 35.1885 43.4352C35.465 43.3686 35.7406 43.9697 35.8209 44.272C35.9014 44.5744 36.022 45.0279 35.6809 45.1198Z" fill="#FECC84"/>
<path d="M31.4445 47.6574C31.1522 47.3323 31.3094 47.159 31.7243 46.9448C32.1393 46.7307 32.5602 46.5686 32.7694 46.8112C32.9786 47.0539 32.5586 47.4492 32.3166 47.5936C32.0746 47.7381 31.7117 47.9545 31.4445 47.6574Z" fill="#FECC84"/>
<path d="M32.6361 45.3529C32.5674 44.9473 32.8134 44.9179 33.3168 45.013C33.8201 45.1079 34.2976 45.2434 34.3405 45.5406C34.3834 45.8378 33.7668 45.8687 33.4616 45.8271C33.1565 45.7855 32.6987 45.7232 32.6361 45.3529Z" fill="#FECC84"/>
<path d="M33.3252 49.7593C33.7324 49.8291 33.7567 50.0832 33.6511 50.5503C33.5456 51.0174 33.3999 51.4449 33.1015 51.3865C32.8033 51.328 32.7853 50.7058 32.8333 50.4171C32.8811 50.1284 32.953 49.6953 33.3252 49.7593Z" fill="#FECC84"/>
<path d="M29.885 50.6253C29.592 50.3006 29.7487 50.127 30.1631 49.9119C30.5774 49.6967 30.9979 49.5337 31.2076 49.7761C31.4172 50.0183 30.9982 50.4147 30.7567 50.5597C30.5151 50.7045 30.1527 50.9218 29.885 50.6253Z" fill="#FECC84"/>
<path d="M32.2919 53.0688C32.6965 53.0873 32.7529 53.3413 32.7108 53.8278C32.6688 54.3144 32.5827 54.7659 32.2854 54.7451C31.9882 54.7242 31.89 54.0965 31.8993 53.7978C31.9085 53.4996 31.9224 53.0519 32.2919 53.0688Z" fill="#FECC84"/>
<path d="M29.4877 52.4808C29.4192 52.0752 29.6652 52.0459 30.1686 52.1408C30.6719 52.2358 31.1494 52.3713 31.1923 52.6686C31.2352 52.9657 30.6186 52.9966 30.3133 52.9551C30.0081 52.9135 29.5504 52.8512 29.4877 52.4808Z" fill="#FECC84"/>
<path d="M31.1123 55.3092C31.5196 55.3791 31.5438 55.6331 31.4383 56.1002C31.3327 56.5673 31.187 56.995 30.8886 56.9364C30.5902 56.8781 30.5724 56.2558 30.6204 55.9672C30.6683 55.6783 30.7403 55.2452 31.1123 55.3092Z" fill="#FECC84"/>
<path d="M27.6721 56.1751C27.3791 55.8506 27.5358 55.677 27.9502 55.4618C28.3645 55.2466 28.7852 55.0834 28.9948 55.3258C29.2043 55.5682 28.7855 55.9646 28.5439 56.1096C28.3022 56.2544 27.9398 56.4718 27.6721 56.1751Z" fill="#FECC84"/>
<path d="M27.2748 58.0306C27.2063 57.625 27.4523 57.5957 27.9556 57.6906C28.4588 57.7856 28.9364 57.9211 28.9794 58.2182C29.0223 58.5155 28.4057 58.5464 28.1004 58.5048C27.7952 58.4632 27.3375 58.401 27.2748 58.0306Z" fill="#FECC84"/>
<path d="M30.087 58.6051C29.6935 58.6461 29.6012 58.397 29.5693 57.898C29.5377 57.399 29.5535 56.9287 29.8436 56.9059C30.1338 56.8832 30.3218 57.5047 30.3573 57.8083C30.3929 58.1121 30.4464 58.5677 30.087 58.6051Z" fill="#FECC84"/>
<path d="M26.3627 58.7202C26.7552 58.6757 26.8495 58.9243 26.8856 59.4238C26.9218 59.9231 26.9099 60.3941 26.6204 60.4194C26.3309 60.4448 26.1376 59.824 26.0995 59.5202C26.0615 59.2165 26.0043 58.7607 26.3627 58.7202Z" fill="#FECC84"/>
<path d="M29.9322 60.4933C30.1399 60.8706 29.9354 60.9887 29.46 61.0764C28.9847 61.1639 28.5171 61.2019 28.3713 60.9227C28.2255 60.6434 28.7541 60.3902 29.0365 60.3211C29.3188 60.252 29.7424 60.1485 29.9322 60.4933Z" fill="#FECC84"/>
<path d="M26.8073 62.6207C27.015 62.9981 26.8103 63.1161 26.3351 63.2036C25.8597 63.2912 25.3922 63.3293 25.2464 63.05C25.1006 62.7707 25.6292 62.5176 25.9116 62.4483C26.1939 62.3795 26.6175 62.2759 26.8073 62.6207Z" fill="#FECC84"/>
<path d="M30.2366 53.9945C30.6401 54.1126 30.6331 54.3628 30.468 54.8041C30.3029 55.2453 30.1023 55.6433 29.8075 55.5497C29.5129 55.4561 29.5722 54.8485 29.6566 54.5738C29.7412 54.2986 29.8679 53.8864 30.2366 53.9945Z" fill="#FECC84"/>
<path d="M22.6744 43.7772C23.0779 43.8954 23.0709 44.1455 22.9058 44.5868C22.7407 45.028 22.5401 45.426 22.2453 45.3324C21.9506 45.2387 22.01 44.6312 22.0944 44.3563C22.1789 44.0816 22.3056 43.6691 22.6744 43.7772Z" fill="#FECC84"/>
<path d="M23.666 48.4918C23.6955 48.8957 23.4439 48.9005 22.9443 48.7585C22.4448 48.6166 21.9754 48.4371 21.9612 48.1417C21.947 47.8466 22.5733 47.8763 22.8778 47.9467C23.1825 48.017 23.6391 48.1227 23.666 48.4918Z" fill="#FECC84"/>
<path d="M20.9549 48.6711C20.9844 49.075 20.7329 49.0798 20.2332 48.9378C19.7338 48.7957 19.2643 48.6164 19.2501 48.321C19.2359 48.0257 19.8624 48.0555 20.1669 48.126C20.4713 48.1964 20.928 48.3021 20.9549 48.6711Z" fill="#FECC84"/>
<path d="M21.2607 50.4878C21.5885 50.7778 21.4596 50.9742 21.0863 51.247C20.7132 51.52 20.3271 51.7409 20.0913 51.5233C19.8556 51.3057 20.209 50.8487 20.4239 50.6699C20.6388 50.4913 20.9613 50.223 21.2607 50.4878Z" fill="#FECC84"/>
<path d="M28.3366 42.7025C28.7436 42.7845 28.7601 43.0379 28.6395 43.4993C28.5189 43.9606 28.3592 44.3815 28.0615 44.3142C27.7636 44.2469 27.7651 43.6274 27.8222 43.3417C27.8792 43.0561 27.9648 42.6275 28.3366 42.7025Z" fill="#FECC84"/>
<path d="M21.8794 42.9317C21.4806 42.7872 21.5052 42.5408 21.7028 42.117C21.9002 41.6931 22.1307 41.3145 22.4213 41.4274C22.7121 41.5402 22.6097 42.1354 22.5051 42.4008C22.4005 42.666 22.2438 43.064 21.8794 42.9317Z" fill="#FECC84"/>
<path d="M33.6566 53.198C33.3491 52.8864 33.495 52.7033 33.8938 52.4646C34.2925 52.2259 34.7001 52.0392 34.9206 52.2722C35.141 52.5052 34.7476 52.9265 34.5162 53.0855C34.2847 53.2442 33.9375 53.4825 33.6566 53.198Z" fill="#FECC84"/>
<path d="M36.0055 48.549C35.6071 48.4021 35.6332 48.1562 35.8332 47.7339C36.0333 47.3116 36.2659 46.9347 36.5564 47.049C36.8467 47.1635 36.7408 47.7576 36.6348 48.022C36.5285 48.2863 36.3695 48.6831 36.0055 48.549Z" fill="#FECC84"/>
<path d="M34.1237 42.3323C34.4066 42.6653 34.243 42.8323 33.8187 43.0314C33.3946 43.2304 32.9661 43.3775 32.764 43.1294C32.5619 42.8811 32.9973 42.5022 33.2452 42.3667C33.4933 42.2313 33.8652 42.0282 34.1237 42.3323Z" fill="#FECC84"/>
<path d="M35.2184 48.6867C35.1409 49.0673 34.886 49.0053 34.4204 48.7428C33.9547 48.4801 33.5294 48.1909 33.5934 47.9144C33.6576 47.6382 34.281 47.8307 34.569 47.9758C34.8572 48.1212 35.2893 48.3389 35.2184 48.6867Z" fill="#FECC84"/>
<path d="M34.543 67.4136C34.1491 67.2491 34.187 67.0069 34.4085 66.5977C34.6301 66.1885 34.8823 65.8259 35.1691 65.9529C35.4558 66.0801 35.3209 66.6639 35.2015 66.921C35.082 67.178 34.9029 67.5638 34.543 67.4136Z" fill="#FECC84"/>
<path d="M31.8817 66.2449C31.7439 65.8463 31.9739 65.7731 32.4722 65.7805C32.9705 65.7879 33.4512 65.8408 33.545 66.1344C33.6389 66.4277 33.0548 66.5679 32.7556 66.5797C32.4564 66.5915 32.0075 66.6092 31.8817 66.2449Z" fill="#FECC84"/>
<path d="M32.7034 68.5309C32.5657 68.1322 32.7956 68.0591 33.294 68.0664C33.7923 68.0738 34.273 68.1269 34.3668 68.4204C34.4608 68.7138 33.8768 68.8539 33.5775 68.8656C33.2781 68.8774 32.8293 68.8951 32.7034 68.5309Z" fill="#FECC84"/>
<path d="M36.9401 70.7838C36.9744 71.1881 36.7235 71.196 36.2232 71.0598C35.7229 70.9235 35.2523 70.7493 35.2345 70.4537C35.2167 70.1581 35.8422 70.1803 36.147 70.2473C36.4515 70.314 36.9086 70.4142 36.9401 70.7838Z" fill="#FECC84"/>
<path d="M33.8638 69.6461C34.209 69.9136 34.0977 70.1218 33.7514 70.426C33.4054 70.7304 33.0425 70.9834 32.7934 70.782C32.5443 70.5806 32.8566 70.092 33.0542 69.895C33.2518 69.6976 33.5484 69.402 33.8638 69.6461Z" fill="#FECC84"/>
<path d="M35.6619 72.3542C35.7587 72.7585 35.5184 72.8057 35.0153 72.7461C34.5122 72.6866 34.0315 72.5839 33.9677 72.2872C33.9039 71.9904 34.5096 71.9151 34.8134 71.935C35.1176 71.955 35.5733 71.9851 35.6619 72.3542Z" fill="#FECC84"/>
<path d="M32.1794 71.2539C32.5865 71.3091 32.6202 71.5636 32.5329 72.037C32.4455 72.5106 32.3168 72.946 32.0184 72.8982C31.7199 72.8505 31.6786 72.2257 31.7156 71.9336C31.7522 71.6417 31.8075 71.2035 32.1794 71.2539Z" fill="#FECC84"/>
<path d="M27.6043 52.5869C27.2103 52.4225 27.2483 52.1801 27.4698 51.7709C27.6913 51.3617 27.9436 50.9991 28.2304 51.1263C28.5171 51.2535 28.3822 51.8372 28.2627 52.0942C28.1433 52.3513 27.9642 52.737 27.6043 52.5869Z" fill="#FECC84"/>
<path d="M25.7647 53.7044C25.627 53.3058 25.8569 53.2326 26.3552 53.24C26.8534 53.2474 27.3342 53.3003 27.4281 53.5938C27.5221 53.8872 26.938 54.0274 26.6386 54.0392C26.3394 54.051 25.8906 54.0686 25.7647 53.7044Z" fill="#FECC84"/>
<path d="M26.925 54.8195C27.2703 55.0869 27.1588 55.2953 26.8127 55.5995C26.4666 55.9038 26.1037 56.1568 25.8547 55.9553C25.6056 55.7541 25.9178 55.2653 26.1155 55.0683C26.3131 54.871 26.6097 54.5752 26.925 54.8195Z" fill="#FECC84"/>
<path d="M25.2407 56.4273C25.6478 56.4824 25.6815 56.7369 25.5942 57.2105C25.5068 57.6839 25.3781 58.1193 25.0797 58.0715C24.7812 58.024 24.7399 57.399 24.7769 57.107C24.8135 56.815 24.8688 56.377 25.2407 56.4273Z" fill="#FECC84"/>
<path d="M19.7565 44.7784C19.4636 44.4537 19.6203 44.2801 20.0347 44.0649C20.449 43.8498 20.8695 43.6868 21.0791 43.9292C21.2888 44.1714 20.8698 44.5677 20.6283 44.7128C20.3867 44.8576 20.0243 45.0751 19.7565 44.7784Z" fill="#FECC84"/>
<path d="M19.3592 46.6338C19.2907 46.2283 19.5366 46.1989 20.0399 46.2939C20.5432 46.3889 21.0207 46.5244 21.0636 46.8216C21.1067 47.1188 20.4899 47.1496 20.1847 47.1082C19.8797 47.0666 19.4218 47.0043 19.3592 46.6338Z" fill="#FECC84"/>
<path d="M19.6887 41.19C19.2948 41.0257 19.3328 40.7833 19.5543 40.3741C19.7758 39.965 20.028 39.6023 20.3147 39.7294C20.6016 39.8566 20.4665 40.4403 20.3471 40.6975C20.2276 40.9546 20.0485 41.3402 19.6887 41.19Z" fill="#FECC84"/>
<path d="M17.8489 42.3076C17.7112 41.9088 17.9412 41.8356 18.4395 41.843C18.9376 41.8504 19.4183 41.9033 19.5123 42.1969C19.6064 42.4904 19.0223 42.6304 18.7229 42.6422C18.4236 42.654 17.9748 42.6718 17.8489 42.3076Z" fill="#FECC84"/>
<path d="M19.0093 43.4226C19.3545 43.69 19.243 43.8983 18.897 44.2026C18.5509 44.507 18.188 44.7598 17.9389 44.5585C17.6898 44.3571 18.0019 43.8685 18.1997 43.6713C18.3973 43.4742 18.6939 43.1784 19.0093 43.4226Z" fill="#FECC84"/>
<path d="M17.325 45.0305C17.7321 45.0855 17.7657 45.34 17.6783 45.8136C17.5911 46.2871 17.4624 46.7224 17.1638 46.6748C16.8653 46.6272 16.824 46.0022 16.861 45.7102C16.8979 45.4182 16.953 44.9801 17.325 45.0305Z" fill="#FECC84"/>
<path d="M24.436 41.6345C24.7511 41.9385 24.6114 42.1266 24.2217 42.3779C23.8321 42.6292 23.4319 42.8285 23.2058 42.6012C22.9795 42.3738 23.3585 41.9391 23.5842 41.7727C23.8097 41.6065 24.1482 41.357 24.436 41.6345Z" fill="#FECC84"/>
<path d="M24.6725 39.7283C24.7736 40.132 24.5341 40.1821 24.0312 40.1276C23.5284 40.0732 23.0476 39.9754 22.9806 39.6788C22.9136 39.3823 23.5175 39.3004 23.8212 39.3171C24.1249 39.3339 24.5803 39.3592 24.6725 39.7283Z" fill="#FECC84"/>
<path d="M22.77 46.8981C22.5206 47.1748 22.3028 47.0083 21.9734 46.5814C21.644 46.1546 21.3656 45.7244 21.5541 45.5269C21.7427 45.3294 22.2565 45.7705 22.4683 46.0204C22.6801 46.2704 22.9978 46.6453 22.77 46.8981Z" fill="#FECC84"/>
<path d="M24.8005 45.2529C25.2015 45.3866 25.1844 45.6344 25.0005 46.0658C24.8167 46.4974 24.5986 46.8844 24.306 46.7796C24.0136 46.6748 24.0977 46.074 24.1938 45.8045C24.29 45.5351 24.4342 45.1307 24.8005 45.2529Z" fill="#FECC84"/>
<path d="M26.5169 43.9729C26.6855 44.3642 26.4653 44.4571 25.9748 44.4906C25.4842 44.5242 25.007 44.5101 24.8903 44.2216C24.7736 43.9329 25.3364 43.7435 25.6297 43.7069C25.9231 43.6703 26.363 43.6155 26.5169 43.9729Z" fill="#FECC84"/>
<path d="M25.2832 42.9424C24.9215 42.7007 25.0139 42.4811 25.3289 42.1453C25.644 41.8095 25.9798 41.5242 26.2416 41.7071C26.5032 41.89 26.2368 42.4092 26.0589 42.6245C25.8809 42.8398 25.6138 43.163 25.2832 42.9424Z" fill="#FECC84"/>
<path d="M26.8063 41.1798C26.4013 41.1577 26.347 40.9035 26.3937 40.4181C26.4404 39.9327 26.5308 39.4824 26.8282 39.506C27.1258 39.5296 27.2182 40.1573 27.2063 40.4552C27.1942 40.7532 27.1764 41.2001 26.8063 41.1798Z" fill="#FECC84"/>
<path d="M36.9456 72.8571C37.3527 72.9122 37.3863 73.1668 37.299 73.6403C37.2116 74.1139 37.083 74.5492 36.7846 74.5015C36.486 74.454 36.4448 73.829 36.4817 73.5368C36.5185 73.2448 36.5736 72.8068 36.9456 72.8571Z" fill="#FECC84"/>
<path d="M39.1835 75.5415C39.5906 75.5965 39.6242 75.8512 39.537 76.3246C39.4497 76.7982 39.3209 77.2334 39.0225 77.1858C38.7239 77.1381 38.6827 76.5133 38.7196 76.2212C38.7562 75.929 38.8115 75.4911 39.1835 75.5415Z" fill="#FECC84"/>
<path d="M43.2012 76.228C43.2845 76.6331 43.0414 76.6718 42.5378 76.5952C42.0342 76.5184 41.5548 76.4 41.5009 76.1028C41.4471 75.8055 42.0584 75.7517 42.3633 75.7819C42.6681 75.8123 43.1252 75.8578 43.2012 76.228Z" fill="#FECC84"/>
<path d="M33.6521 74.2047C33.6511 73.8043 33.9053 73.8172 34.3992 73.9926C34.893 74.168 35.3539 74.3779 35.3473 74.67C35.3406 74.9625 34.7108 74.8887 34.4086 74.798C34.1064 74.7069 33.6531 74.5705 33.6521 74.2047Z" fill="#FECC84"/>
<path d="M36.5479 75.8456C36.9228 75.7491 37.0474 75.9885 37.1485 76.4896C37.2496 76.9906 37.3004 77.469 37.0228 77.5326C36.7452 77.5961 36.4756 76.993 36.3985 76.6903C36.3211 76.3877 36.2053 75.9338 36.5479 75.8456Z" fill="#FECC84"/>
<path d="M35.6952 68.8811C35.3013 68.7165 35.3392 68.4741 35.5608 68.0651C35.7823 67.6559 36.0347 67.2933 36.3214 67.4203C36.608 67.5476 36.4733 68.1313 36.3537 68.3884C36.2343 68.6455 36.0551 69.0312 35.6952 68.8811Z" fill="#FECC84"/>
<path d="M43.551 68.0923C43.4132 67.6936 43.6432 67.6205 44.1415 67.6279C44.6397 67.6352 45.1203 67.6883 45.2144 67.9818C45.3084 68.2751 44.7243 68.4153 44.4249 68.4271C44.1257 68.4389 43.6768 68.4564 43.551 68.0923Z" fill="#FECC84"/>
<path d="M49.1991 69.2331C48.7921 69.1829 48.7553 68.9284 48.8365 68.4528C48.9177 67.9772 49.0405 67.5396 49.3389 67.5836C49.6375 67.6276 49.6863 68.2532 49.6533 68.5463C49.6204 68.8392 49.5709 69.2789 49.1991 69.2331Z" fill="#FECC84"/>
<path d="M44.3728 70.3784C44.235 69.9796 44.465 69.9064 44.9633 69.9138C45.4614 69.9212 45.9423 69.9741 46.0361 70.2678C46.1302 70.5612 45.5461 70.7012 45.2468 70.713C44.9474 70.7248 44.4986 70.7425 44.3728 70.3784Z" fill="#FECC84"/>
<path d="M46.9906 65.4555C46.5858 65.4357 46.5302 65.1817 46.5739 64.6955C46.6176 64.2093 46.7052 63.7583 47.0026 63.7801C47.3 63.802 47.396 64.4297 47.3858 64.728C47.3756 65.0264 47.3602 65.4737 46.9906 65.4555Z" fill="#FECC84"/>
<path d="M47.3645 70.7283C46.9706 70.564 47.0085 70.3216 47.2301 69.9124C47.4516 69.5032 47.7038 69.1406 47.9907 69.2676C48.2774 69.3948 48.1424 69.9786 48.023 70.2357C47.9036 70.4929 47.7244 70.8787 47.3645 70.7283Z" fill="#FECC84"/>
<path d="M48.4597 66.7669C48.0658 66.6024 48.1038 66.3602 48.3253 65.9508C48.5468 65.5416 48.799 65.179 49.0859 65.3061C49.3726 65.4334 49.2376 66.0171 49.1182 66.2741C48.9988 66.5315 48.8196 66.9172 48.4597 66.7669Z" fill="#FECC84"/>
<path d="M46.0819 70.1391C45.6763 70.1102 45.6263 69.8557 45.6812 69.3725C45.7363 68.8894 45.8347 68.442 46.1326 68.4705C46.4305 68.4991 46.5123 69.1265 46.4953 69.4235C46.4783 69.7203 46.4526 70.1655 46.0819 70.1391Z" fill="#FECC84"/>
<path d="M48.101 68.3405C47.851 68.6166 47.6334 68.4499 47.3048 68.0223C46.9762 67.595 46.6986 67.1642 46.8876 66.9673C47.0767 66.7702 47.5897 67.2122 47.8011 67.4623C48.0125 67.7128 48.3295 68.0882 48.101 68.3405Z" fill="#FECC84"/>
<path d="M46.3904 65.6521C46.514 66.0531 46.28 66.1173 45.7794 66.0915C45.2788 66.0658 44.7976 65.9952 44.7142 65.7003C44.6307 65.4053 45.2232 65.2876 45.5244 65.2872C45.8256 65.2866 46.2774 65.2855 46.3904 65.6521Z" fill="#FECC84"/>
<path d="M59.6708 55.8865C61.193 56.9644 61.1309 58.0829 62.9151 59.6023C63.1259 59.7819 62.5076 60.0458 62.3948 60.2884C62.235 60.6318 61.4066 60.1045 60.9993 60.1102C60.592 60.116 60.2008 59.976 59.8263 59.8291C57.7776 59.0257 54.7583 57.7431 53.6642 55.8505C53.3908 55.3778 51.4078 52.4858 52.1593 52.4742C54.3009 52.4407 55.6905 54.4707 56.3097 54.7332C57.6585 55.3052 58.1047 54.7772 59.6708 55.8865Z" fill="#AD3E3B"/>
<path d="M56.1936 57.1508C53.8982 55.7833 53.2508 50.7515 48.311 51.6902C43.371 52.629 38.1565 59.7739 37.8403 64.1148C37.5242 68.4558 42.0942 72.4655 45.4508 74.5712C49.3711 77.0307 56.4928 78.9047 61.4763 73.4014C65.8362 68.5867 67.8041 63.1268 63.1254 59.7521C60.2763 57.6969 59.953 59.3906 56.1936 57.1508Z" fill="#D34D46"/>
<path d="M65.3024 62.2733C64.8902 64.705 63.2883 67.3321 61.0618 69.7908C56.0781 75.2941 48.9564 73.4201 45.0362 70.9608C42.4603 69.3446 39.1699 66.6073 37.9214 63.4594C37.8831 63.6837 37.8558 63.9028 37.8403 64.1148C37.5242 68.4557 42.0942 72.4655 45.4508 74.5712C49.3711 77.0307 56.4928 78.9047 61.4763 73.4014C64.8701 69.6537 66.8139 65.5151 65.3024 62.2733Z" fill="#AD3E3B"/>
<path opacity="0.27" d="M48.0223 54.734C46.8052 55.0261 45.7272 55.7231 44.9227 56.6101C44.4538 57.1273 44.0617 57.7356 43.9944 58.4053C43.9269 59.0751 44.2507 59.8085 44.9064 60.1101C45.0745 60.1874 45.2635 60.235 45.4504 60.2169C45.7137 60.1913 45.9398 60.0415 46.1523 59.8969C47.1512 59.2174 48.2077 58.5198 49.4388 58.3554C50.0267 58.277 50.6294 58.3253 51.2138 58.2281C51.7983 58.131 52.4 57.8405 52.6042 57.3294C52.9196 56.5399 52.1585 55.5032 51.4652 55.0851C50.5088 54.5084 49.0916 54.4774 48.0223 54.734Z" fill="white"/>
<path opacity="0.27" d="M43.7187 60.8253C43.2796 60.537 42.6048 60.6918 42.2896 61.0937C41.9744 61.4957 41.9935 62.0666 42.2498 62.5023C42.3854 62.7326 42.6083 62.9461 42.8923 62.9733C43.0982 62.9928 43.3001 62.911 43.4728 62.8064C43.7923 62.6134 44.0546 62.3276 44.157 61.9897C44.2594 61.6517 44.1852 61.2622 43.9249 61.0051L43.7187 60.8253Z" fill="white"/>
<path d="M55.6167 56.7058C55.6167 56.7058 57.9191 54.3744 59.3836 53.4572C60.848 52.54 63.8764 51.6207 63.8764 51.6207L64.4841 52.7796C64.4841 52.7796 62.1454 52.9832 60.2217 54.1035C58.8773 54.8865 56.1934 57.1507 56.1934 57.1507L55.6167 56.7058Z" fill="#60443E"/>
<path d="M60.2219 54.1034C60.2219 54.1034 64.3921 53.5827 66.8037 55.1727C70.0315 57.3009 71.8527 59.8576 71.8527 59.8576C71.8527 59.8576 67.5278 61.2298 64.6657 59.8389C61.8034 58.448 59.2942 54.7157 59.2942 54.7157L60.2219 54.1034Z" fill="#436B49"/>
<path opacity="0.27" d="M64.8699 55.7665C64.8092 55.7793 64.747 55.7968 64.7077 55.8396C64.6555 55.8966 64.6551 55.9859 64.6716 56.0674C64.727 56.3414 64.942 56.5868 65.1881 56.7619C65.4342 56.9369 65.7135 57.055 65.9837 57.1867C66.6144 57.4941 67.2097 57.8859 67.7435 58.3447C67.9324 58.5069 68.1198 58.6817 68.3473 58.7787C69.0561 59.0808 69.177 58.3504 69.0411 57.8537C68.9144 57.3905 68.5764 57.1725 68.1643 56.9164C67.1951 56.3137 65.9855 55.5309 64.8699 55.7665Z" fill="white"/>
<path d="M107.006 58.0025C106.21 56.6391 105.34 55.5328 105.373 54.3313C105.441 51.8587 108.004 45.6645 108.004 45.6645L100.591 43.0331C100.591 43.0331 97.9348 49.194 96.1683 51.0637C95.3099 51.9722 93.8542 52.2531 92.2634 52.7686C89.24 53.6718 62.5191 105.097 62.5191 105.097L60.09 110.847C60.09 110.847 58.4111 114.821 62.3463 116.095C65.8014 117.213 66.3149 114.106 68.1044 114.827C69.8942 115.549 68.8532 116.421 69.6494 117.78C70.5807 119.371 74.0995 120.62 75.9562 120.019C77.5437 119.506 77.415 118.219 79.2678 118.791C81.1205 119.363 79.2178 121.976 82.5932 123.283C86.4374 124.771 88.1165 120.797 88.1165 120.797L90.5456 115.047C90.5456 115.047 108.578 60.537 107.006 58.0025Z" fill="#9ED2F2"/>
<path d="M83.3714 121.44C79.9961 120.133 81.8987 117.52 80.0459 116.948C78.1931 116.377 78.3216 117.664 76.7343 118.177C74.8776 118.778 71.3588 117.528 70.4275 115.938C69.6311 114.579 70.6721 113.706 68.8826 112.985C67.0928 112.264 66.5795 115.37 63.1244 114.252C59.1891 112.979 60.8682 109.005 60.8682 109.005L60.0899 110.847C60.0899 110.847 58.411 114.821 62.3461 116.095C65.8012 117.213 66.3147 114.106 68.1043 114.828C69.894 115.549 68.853 116.421 69.6493 117.78C70.5806 119.371 74.0993 120.62 75.9561 120.019C77.5436 119.506 77.4149 118.219 79.2677 118.791C81.1204 119.363 79.2177 121.976 82.5931 123.283C86.4375 124.771 88.1164 120.797 88.1164 120.797L88.8946 118.955C88.8946 118.955 87.2157 122.929 83.3714 121.44Z" fill="#88B4D3"/>
<path d="M107.006 58.0024C106.21 56.639 105.34 55.5327 105.373 54.3312C105.441 51.8587 108.004 45.6644 108.004 45.6644L104.746 44.5078C104.746 44.5078 102.183 50.702 102.115 53.1744C102.082 54.376 102.951 55.4825 103.748 56.8457C105.319 59.3801 87.287 113.89 87.287 113.89L84.8579 119.64C84.8579 119.64 83.7318 122.304 81.2133 122.452C81.5329 122.759 81.9739 123.043 82.5929 123.282C86.4371 124.771 88.1162 120.797 88.1162 120.797L90.5453 115.047C90.5453 115.047 108.578 60.5369 107.006 58.0024Z" fill="#88B4D3"/>
<path d="M107.247 47.8875L99.5176 45.1436C98.9078 44.9269 98.6048 44.2981 98.841 43.7391L100.362 40.1385C100.598 39.5793 101.284 39.3017 101.894 39.5181L109.623 42.262C110.233 42.4786 110.536 43.1073 110.3 43.6664L108.779 47.2671C108.543 47.8263 107.856 48.1041 107.247 47.8875Z" fill="#304298"/>
<path d="M107.156 49.3407L98.6069 46.3055C98.3921 46.2293 98.2854 46.0078 98.3686 45.8109L98.4195 45.6901C98.5027 45.4931 98.7443 45.3954 98.9591 45.4716L107.508 48.5068C107.723 48.583 107.83 48.8045 107.746 49.0014L107.695 49.1222C107.612 49.3192 107.371 49.4169 107.156 49.3407Z" fill="#304298"/>
<path d="M101.99 40.4944L101.311 40.2535L99.2777 45.0681L99.9566 45.309L101.99 40.4944Z" fill="#223466"/>
<path d="M103.461 41.0097L102.782 40.7687L100.748 45.5828L101.427 45.8239L103.461 41.0097Z" fill="#223466"/>
<path d="M105.138 41.609L104.459 41.3679L102.425 46.1821L103.104 46.4231L105.138 41.609Z" fill="#223466"/>
<path d="M106.778 42.1768L106.099 41.9358L104.066 46.7498L104.745 46.9908L106.778 42.1768Z" fill="#223466"/>
<path d="M108.275 42.7062L107.596 42.4652L105.562 47.2794L106.241 47.5203L108.275 42.7062Z" fill="#223466"/>
<path d="M109.466 43.131L108.788 42.89L106.754 47.7042L107.433 47.9451L109.466 43.131Z" fill="#223466"/>
<path d="M109.583 42.8629L101.425 39.9669C101.316 39.9282 101.261 39.8147 101.304 39.7149C101.346 39.6151 101.469 39.5651 101.579 39.6038L109.736 42.4999C109.845 42.5386 109.9 42.652 109.858 42.7518C109.815 42.8516 109.692 42.9016 109.583 42.8629Z" fill="#405CC6"/>
<path opacity="0.58" d="M98.1666 50.5657C97.7306 51.3772 97.1625 52.1619 96.3374 52.658C95.9653 52.8817 95.5486 53.042 95.1948 53.2897C94.8412 53.5372 94.5452 53.906 94.5616 54.3137C94.5884 54.9798 95.4665 55.3953 96.1768 55.2518C96.8869 55.1085 97.4288 54.5907 97.8799 54.0678C98.8914 52.895 99.6794 51.5696 100.312 50.1917C100.527 49.7252 101.17 47.7101 99.9483 47.682C99.137 47.6635 98.4681 50.004 98.1666 50.5657Z" fill="white"/>
<path opacity="0.58" d="M71.568 114.96C71.4946 115.536 71.4923 116.232 71.8989 116.34C72.1427 116.405 72.4532 116.21 72.6816 115.937C72.9101 115.664 73.0737 115.324 73.2324 114.992C73.815 113.772 75.2823 111.286 73.6238 111.217C72.1285 111.155 71.7391 113.617 71.568 114.96Z" fill="white"/>
<path d="M81.2782 69.9926L71.4935 88.1042L96.3968 96.9454L102.446 77.2336L81.2782 69.9926Z" fill="#304298"/>
<path d="M80.0918 72.1888L101.688 79.8559L101.159 81.6104L79.2113 73.8185L80.0918 72.1888Z" fill="#5974AA"/>
<path d="M73.4409 84.4996L97.6166 93.0826L96.8563 95.4482L72.2717 86.7201L73.4409 84.4996Z" fill="#5974AA"/>
<path opacity="0.58" d="M92.8687 57.4493C92.0291 57.3129 91.4493 57.4584 89.9824 60.4664C88.5154 63.4743 68.235 101.144 67.7708 102.01C67.1064 103.251 66.8824 105.293 68.2068 105.956C69.4436 106.574 70.72 106.84 72.2781 103.958C73.8363 101.076 92.1202 62.6989 92.7371 61.4266C93.3542 60.1544 94.3254 57.6863 92.8687 57.4493Z" fill="white"/>
<path opacity="0.58" d="M62.0443 111.579C62.0019 112.166 62.0527 112.88 62.5418 113.018C62.8349 113.101 63.1871 112.92 63.436 112.655C63.6851 112.389 63.8524 112.05 64.0143 111.719C64.6093 110.503 66.1525 108.045 64.1866 107.867C62.414 107.706 62.1431 110.21 62.0443 111.579Z" fill="white"/>
<path d="M4.47623 111.518C3.0903 123.778 4.98594 136.127 6.87778 148.329C7.31524 151.151 7.85595 154.173 10.0175 156.221C12.8504 158.905 17.4288 159.008 21.5022 158.93C50.9103 158.37 80.3186 157.81 109.727 157.249C112.455 157.197 115.805 156.764 116.758 154.42C117.488 152.624 116.345 150.699 115.429 148.976C113.868 146.042 112.881 142.851 112.529 139.602C111.838 133.232 113.569 126.881 114.485 120.534C115.702 112.092 115.473 103.476 113.807 95.0987C111.542 83.7066 106.625 72.5332 107.488 60.9806C102.858 63.2377 97.6592 64.3089 92.4926 65.132C77.0258 67.5959 61.1788 68.0436 45.5759 66.4578C40.2677 65.9183 34.9278 65.1296 29.9995 63.2428C27.36 62.2323 24.8298 60.8925 22.6539 59.1819C20.7836 57.7114 19.2895 54.6233 17.2124 57.1014C15.9377 58.6223 16.3528 64.1725 15.9725 66.1944C15.4124 69.1703 14.6911 72.1186 13.8978 75.0488C10.6169 87.1676 5.88806 99.0315 4.47623 111.518Z" fill="#E3D8C6"/>
<path d="M115.429 148.976C113.868 146.042 112.881 142.851 112.529 139.602C111.838 133.232 113.569 126.881 114.485 120.534C115.702 112.092 115.473 103.476 113.807 95.0988C111.542 83.7067 106.625 72.5332 107.488 60.9807C103.591 62.8804 99.2905 63.9402 94.9455 64.7189C96.0769 73.2502 99.257 81.6532 100.952 90.1789C102.618 98.5563 102.847 107.173 101.63 115.615C100.714 121.961 98.9832 128.312 99.6735 134.682C100.026 137.931 101.013 141.122 102.574 144.057C103.49 145.779 104.633 147.704 103.903 149.5C102.95 151.844 99.5994 152.277 96.8716 152.329C67.4635 152.89 38.0552 153.45 8.64694 154.011C8.56545 154.012 8.48331 154.013 8.40149 154.015C8.80942 154.823 9.33166 155.571 10.0175 156.221C12.8504 158.906 17.4289 159.008 21.5022 158.93C50.9103 158.37 80.3186 157.81 109.727 157.249C112.455 157.197 115.805 156.764 116.758 154.42C117.488 152.624 116.345 150.699 115.429 148.976Z" fill="#C9C0B1"/>
<path d="M112.517 139.535C112.345 137.965 112.32 136.396 112.393 134.828C112.228 134.833 112.064 134.842 111.899 134.856C110.133 135.006 108.454 135.614 106.711 135.914C104.02 136.376 101.255 136.096 98.5243 135.919C77.0781 134.526 55.8196 139.58 34.3959 141.237C28.4137 141.7 22.3167 141.842 16.3736 140.935C12.951 140.413 9.07794 138.683 5.45178 138.894C5.89023 142.07 6.38492 145.24 6.87994 148.4C7.32169 151.221 7.86718 154.243 10.0319 156.288C12.869 158.969 17.4475 159.065 21.5207 158.982C50.928 158.383 80.3352 157.785 109.743 157.186C112.47 157.13 115.821 156.693 116.77 154.348C117.497 152.551 116.351 150.627 115.432 148.906C113.867 145.973 112.874 142.784 112.517 139.535Z" fill="#F7A037"/>
<path d="M115.429 149.003C114.029 146.37 113.092 143.531 112.66 140.628C112.605 140.274 112.557 139.918 112.518 139.562C112.345 137.992 112.32 136.423 112.393 134.854C112.229 134.86 112.064 134.869 111.9 134.883C110.134 135.033 108.454 135.641 106.711 135.94C104.457 136.328 102.15 136.194 99.8548 136.036C100.308 138.824 101.226 141.549 102.574 144.083C103.491 145.806 104.633 147.731 103.903 149.527C102.951 151.871 99.5999 152.304 96.8721 152.356C67.464 152.917 38.0557 153.477 8.64759 154.037C8.56594 154.039 8.48396 154.04 8.40198 154.041C8.80991 154.85 9.33231 155.598 10.018 156.248C12.8509 158.932 17.4295 159.035 21.5027 158.957C34.8337 158.703 48.1647 158.449 61.4957 158.195C77.5782 157.868 93.6608 157.54 109.743 157.213C112.471 157.157 115.821 156.72 116.77 154.375C116.859 154.155 116.92 153.933 116.956 153.71C117.182 152.132 116.222 150.492 115.429 149.003Z" fill="#DD8C33"/>
<path d="M37.222 100.124C39.3993 104.185 40.2009 108.674 41.0445 113.087C41.8881 117.501 42.8276 121.986 45.2396 125.947C47.6515 129.909 51.7989 133.333 56.9121 134.133C59.8786 134.596 62.9204 134.16 65.9139 133.85C69.7136 133.456 73.542 133.268 77.3691 133.287C81.1044 133.305 85.4589 133.285 87.7375 130.738C89.02 129.305 89.2843 127.397 89.4008 125.591C89.6069 122.393 89.494 119.179 89.0639 115.997C87.6082 116.995 86.1523 117.993 84.6966 118.991C84.405 119.191 84.1081 119.396 83.9062 119.666C83.6198 120.049 83.554 120.519 83.5012 120.972C83.2366 123.243 83.0395 125.693 81.3451 127.448C79.8304 129.017 77.4202 129.696 75.1069 130.14C69.7847 131.164 64.2446 131.341 58.8487 130.662C56.7338 130.396 54.5998 129.986 52.7596 129.051C49.4388 127.363 47.4983 124.163 46.631 120.929C45.7635 117.695 45.8049 114.34 45.4873 111.032C45.3323 109.415 45.0598 107.733 43.984 106.401C42.9081 105.069 40.7943 104.223 39.0788 104.895L37.222 100.124Z" fill="#C9C0B1"/>
<path d="M42.4383 90.9537C42.8718 88.1579 43.465 85.3698 43.5154 82.5463C43.617 76.8724 41.5352 71.3792 39.4794 66.0266C40.8335 66.0605 42.2961 66.1291 43.3477 66.9121C44.5297 67.7921 44.8395 69.3025 45.0711 70.6822C46.6518 80.1041 48.2176 89.846 45.5635 99.063C44.5505 102.581 42.9254 106.236 44.0253 109.731C43.5999 108.38 41.8773 107.021 41.3168 105.55C40.7841 104.152 40.5766 102.864 40.9135 101.425C41.7236 97.9628 41.8921 94.4759 42.4383 90.9537Z" fill="#C9C0B1"/>
<path d="M85.1415 94.633C89.5898 104.232 90.6216 115.132 88.0432 125.29C87.9754 125.557 87.8954 125.839 87.6772 126.026C87.1797 126.452 86.3602 126.115 85.8708 125.681C83.86 123.899 83.6993 121.033 83.7805 118.47C83.8705 115.624 84.0965 112.781 84.4578 109.953C84.7707 107.502 85.1842 105.012 84.6986 102.585C84.327 100.728 83.4446 98.9959 82.7601 97.2152C80.9679 92.5531 80.5334 87.5592 80.1136 82.6311C80.0488 81.8703 80.0695 81.1158 80.775 80.7058C81.9055 82.1602 81.2998 85.0848 81.7827 86.8459C82.5265 89.5582 83.9545 92.0719 85.1415 94.633Z" fill="#C9C0B1"/>
<path d="M45.0361 115.546C47.0609 118.068 49.4799 120.362 52.381 122.014C54.9466 123.475 57.8326 124.405 60.7561 125.102C65.1597 126.151 69.7896 126.692 74.2662 125.947C78.7431 125.202 83.0671 123.053 85.5954 119.586C88.7865 115.208 88.7065 109.455 87.4224 104.324C86.138 99.1923 83.7842 94.3091 82.7573 89.1293C81.2586 81.5677 82.6594 73.8374 84.3559 66.2742C82.4619 66.4881 80.5641 66.6721 78.6632 66.8262C76.2254 76.4779 76.433 86.6827 79.2714 96.2425C80.5966 100.706 82.4868 105.047 83.2456 109.62C83.5531 111.473 83.6575 113.435 82.8532 115.159C81.5936 117.858 78.4275 119.352 75.3717 120.231C70.8197 121.542 65.8987 121.971 61.2505 120.985C56.6021 119.998 52.2559 117.515 49.6591 113.846C48.3667 112.02 47.5312 109.96 46.4867 108.005C45.5547 106.26 44.4528 104.593 43.568 102.828C42.0978 99.8946 41.247 96.7272 40.7181 93.5358C39.1105 83.8329 41.0937 75.3418 44.1044 66.3385C42.5095 66.1604 40.9156 65.9524 39.3343 65.6925C38.4131 67.9384 38.1322 70.9693 37.8249 72.554C36.7086 78.3113 36.0226 84.1601 36.2372 90.0139C36.5694 99.0705 39.176 108.249 45.0361 115.546Z" fill="#F7A037"/>
<path opacity="0.37" d="M18.9904 79.3134C19.0381 82.8531 17.9912 86.3601 16.3184 89.5507C14.5309 92.9603 12.0049 96.1212 11.1646 99.8247C10.3243 103.528 11.9298 108.131 15.8949 109.178C18.6729 109.912 21.7567 108.591 23.5027 106.478C25.2487 104.366 25.8464 101.623 25.8822 98.9732C25.9107 96.8565 25.6179 94.7023 26.1685 92.6464C26.781 90.3596 28.3746 88.4185 29.5735 86.3362C32.7157 80.8773 33.3189 72.3184 27.1541 68.2791C24.8519 66.7706 22.2521 66.7198 20.3567 68.7988C17.7002 71.7128 18.9443 75.8849 18.9904 79.3134Z" fill="white"/>
<path opacity="0.37" d="M9.84482 114.403C8.87539 115.55 8.88463 117.135 8.97733 118.583C9.42105 125.523 10.7728 132.416 13.0449 139.049C13.7146 141.004 14.4868 142.975 15.8666 144.587C17.2464 146.199 19.3443 147.418 21.5786 147.36C21.8915 147.351 22.2348 147.305 22.4413 147.089C22.6428 146.879 22.6539 146.571 22.6466 146.291C22.5731 143.461 21.6982 140.681 21.6897 137.849C21.6803 134.704 22.7359 131.651 23.5633 128.598C24.3907 125.546 24.9933 122.313 24.0863 119.28C22.7619 114.849 14.0566 109.419 9.84482 114.403Z" fill="white"/>
<path d="M93.7642 125.65C93.1405 126.404 92.4799 127.164 92.1782 128.068C91.8765 128.972 92.0216 130.074 92.8137 130.68C93.2586 131.02 93.8402 131.161 94.4016 131.293C96.4988 131.786 98.5962 132.279 100.693 132.772C101.411 132.94 102.185 133.106 102.875 132.859C103.271 132.717 103.597 132.45 103.896 132.175C107.14 129.192 108.156 124.713 108.146 120.502C108.141 118.394 109.4 105.754 104.57 109.004C102.888 110.137 99.6387 116.818 98.6678 118.534C97.2576 121.028 95.6168 123.413 93.7642 125.65Z" fill="#C9C0B1"/>
<path d="M57.3276 40.1352C57.5372 40.2911 57.7357 40.4749 57.9229 40.6866C58.1104 40.8978 58.2863 41.1048 58.4509 41.307C58.506 41.2492 58.5697 41.1961 58.6418 41.1475C58.714 41.0985 58.7874 41.06 58.8618 41.0321C58.9364 41.0039 59.0096 40.9902 59.0815 40.9908C59.1536 40.9911 59.2183 41.0129 59.2757 41.0555C59.2981 41.0721 59.3228 41.098 59.3496 41.1334C59.3765 41.1683 59.3989 41.2072 59.4177 41.2494C59.436 41.2916 59.4447 41.3353 59.4442 41.3803C59.4438 41.4255 59.4282 41.4652 59.3979 41.4993L58.9908 41.9592C58.9525 42.0026 58.9467 42.0478 58.9736 42.0945C59.0008 42.1411 59.03 42.1839 59.062 42.2227C59.1803 42.36 59.2809 42.4815 59.3639 42.5867C59.4467 42.6918 59.5167 42.781 59.5742 42.8542C59.6315 42.9271 59.6786 42.9861 59.7159 43.0308C59.7529 43.0754 59.785 43.108 59.8126 43.1284C59.8451 43.1526 59.8772 43.1746 59.9092 43.1946C59.9411 43.2147 59.9833 43.2442 60.0358 43.2832L60.0732 43.311C60.0932 43.326 60.1178 43.347 60.1473 43.3747C60.1766 43.4024 60.2133 43.4474 60.2568 43.5103C60.2919 43.5593 60.3147 43.6179 60.3249 43.6859C60.3348 43.7541 60.3086 43.8237 60.2458 43.8947C60.1912 43.9564 60.1308 43.9988 60.0648 44.0219C59.999 44.0447 59.9314 44.0535 59.8621 44.0475C59.793 44.0416 59.7232 44.0243 59.6537 43.9953C59.5841 43.9663 59.5208 43.9301 59.4635 43.8875C59.401 43.8411 59.3501 43.7936 59.3101 43.7452L58.4836 42.7149C58.3966 42.8553 58.3206 42.9808 58.2556 43.0918C58.1904 43.2025 58.1253 43.3136 58.0603 43.4245C57.9897 43.5463 57.9303 43.6531 57.8825 43.7446C57.8346 43.8359 57.7932 43.9144 57.7584 43.9796C57.7235 44.0446 57.6936 44.0992 57.669 44.1436C57.6444 44.1878 57.621 44.2224 57.5986 44.2477C57.5664 44.2841 57.5301 44.319 57.4905 44.3522C57.4508 44.3853 57.411 44.4105 57.3706 44.4279C57.3304 44.4455 57.2885 44.4529 57.2446 44.4509C57.201 44.4486 57.1567 44.4311 57.1118 44.3975C57.0519 44.3531 57.0085 44.3026 56.9813 44.2466C56.9544 44.1905 56.9394 44.1329 56.9361 44.0733C56.933 44.0139 56.9399 43.9545 56.9571 43.8953C56.9744 43.8359 56.9973 43.7809 57.0259 43.7301C57.0508 43.6879 57.0816 43.6321 57.1182 43.5628C57.155 43.4931 57.1954 43.4169 57.2397 43.3343C57.2839 43.2515 57.3295 43.1648 57.3764 43.0747C57.4234 42.984 57.4681 42.8959 57.5108 42.8105C57.5742 42.6829 57.6286 42.5745 57.6745 42.4854C57.7205 42.396 57.7616 42.3215 57.7983 42.2615C57.8348 42.2013 57.8653 42.1529 57.8897 42.1161C57.914 42.0792 57.9354 42.0504 57.9536 42.0299C57.8498 41.8807 57.7434 41.7389 57.6344 41.6049C57.5255 41.4705 57.4213 41.3486 57.3221 41.2385C57.2228 41.1285 57.131 41.0337 57.0467 40.9539C56.962 40.8741 56.8937 40.8143 56.8413 40.7753C56.7738 40.7253 56.7045 40.6831 56.6333 40.6492C56.5619 40.6149 56.4916 40.5954 56.4225 40.5893C56.3532 40.5834 56.2849 40.594 56.2171 40.6214C56.1495 40.6487 56.0842 40.698 56.0213 40.7691C55.9141 40.8902 55.845 41.036 55.814 41.2067C55.7833 41.3771 55.7762 41.5568 55.793 41.746C55.81 41.9348 55.8427 42.126 55.8907 42.3195C55.9388 42.5128 55.9875 42.6941 56.0365 42.8631C56.0571 42.9241 56.048 42.9762 56.0096 43.0198C55.9974 43.0336 55.9802 43.0482 55.958 43.064C55.9357 43.0797 55.9103 43.0921 55.8816 43.1011C55.8531 43.1102 55.8232 43.1132 55.792 43.1114C55.761 43.109 55.7317 43.0977 55.7043 43.0773C55.6841 43.0623 55.6703 43.0499 55.6625 43.0402C55.54 42.8887 55.4347 42.7163 55.3468 42.5238C55.2587 42.3312 55.1713 42.1362 55.085 41.9394C55.0544 41.871 55.0328 41.7951 55.0199 41.7113C55.0069 41.6279 54.9994 41.5417 54.9973 41.4526C54.9953 41.3638 54.9974 41.2745 55.0047 41.1848C55.0115 41.0953 55.0199 41.012 55.0294 40.9359C55.0466 40.8043 55.0895 40.6788 55.1579 40.5594C55.2267 40.4395 55.3036 40.3316 55.3886 40.2356C55.5202 40.0868 55.6665 39.9766 55.8273 39.9048C55.9883 39.8326 56.1541 39.795 56.3253 39.7912C56.496 39.7876 56.6671 39.8152 56.8383 39.8744C57.0095 39.9332 57.1727 40.02 57.3276 40.1352Z" fill="#93746C"/>
<path d="M54.8012 43.5153C54.9084 43.595 54.9763 43.6891 55.0046 43.7976C55.0328 43.9059 55.021 44.0125 54.9691 44.1182C55.0017 44.1841 55.0415 44.2782 55.0887 44.4005C55.1357 44.5227 55.1796 44.6636 55.2205 44.8232C55.2616 44.9826 55.2936 45.1534 55.3165 45.3357C55.3394 45.5176 55.3432 45.7026 55.3279 45.8906C55.3128 46.0784 55.2726 46.2629 55.2076 46.4441C55.1423 46.6251 55.0412 46.7935 54.9033 46.9491C54.786 47.0817 54.6661 47.1844 54.544 47.2568C54.4221 47.3291 54.3015 47.374 54.1824 47.3917C54.0633 47.4091 53.9467 47.402 53.8321 47.3701C53.7178 47.3382 53.6105 47.285 53.5107 47.2107C53.4258 47.1475 53.3537 47.077 53.2948 46.9989C53.1833 46.8629 53.1137 46.7125 53.0858 46.5475C53.0579 46.3827 53.0568 46.2119 53.0825 46.0358C53.1081 45.8593 53.1561 45.6825 53.2262 45.505C53.2965 45.3276 53.3751 45.1566 53.4627 44.9924C53.5503 44.8279 53.6417 44.6747 53.7362 44.5327C53.8311 44.3907 53.9147 44.269 53.9879 44.1677C53.9611 44.114 53.92 44.0538 53.8647 43.988C53.8091 43.9218 53.7488 43.8651 53.6839 43.8168C53.5391 43.709 53.3803 43.678 53.2074 43.7238C53.0344 43.7697 52.8658 43.8853 52.7018 44.0706C52.6066 44.1781 52.5286 44.2909 52.4676 44.4087C52.4069 44.5263 52.3579 44.6449 52.3213 44.7636C52.2845 44.8821 52.2559 44.9986 52.2358 45.1128C52.2155 45.2266 52.2009 45.3332 52.1914 45.4327C52.1784 45.5596 52.1598 45.6754 52.1349 45.7805C52.1103 45.8856 52.0727 45.9665 52.022 46.0238C51.9716 46.0808 51.9234 46.1059 51.878 46.0987C51.8327 46.0914 51.7923 46.0751 51.7575 46.0491C51.7375 46.0342 51.719 46.0191 51.701 46.0042C51.6834 45.989 51.6694 45.9757 51.659 45.9639C51.6041 45.9042 51.5593 45.8333 51.525 45.7506C51.4904 45.6682 51.4727 45.5829 51.4719 45.4952C51.4779 45.1047 51.5481 44.752 51.6826 44.4365C51.8168 44.1211 52.0098 43.8214 52.2607 43.5378C52.3094 43.483 52.3703 43.421 52.4437 43.3522C52.5169 43.2833 52.6004 43.2171 52.6936 43.1539C52.7869 43.0904 52.8892 43.0357 53.0004 42.9895C53.1117 42.9431 53.2292 42.9159 53.3527 42.9073C53.4763 42.8984 53.6059 42.9135 53.7417 42.9517C53.8773 42.9901 54.0175 43.0632 54.1623 43.1708C54.2794 43.2581 54.3975 43.3703 54.516 43.5079C54.5473 43.4817 54.589 43.4663 54.641 43.4613C54.6928 43.4563 54.7462 43.4743 54.8012 43.5153ZM53.9365 46.4348C53.9449 46.4486 53.9541 46.4593 53.9642 46.4667C53.9741 46.4743 53.9853 46.4825 53.9978 46.4918C54.0653 46.542 54.1361 46.5567 54.2101 46.536C54.2845 46.5151 54.35 46.4728 54.4066 46.4088C54.4958 46.3081 54.5546 46.1877 54.5833 46.0479C54.612 45.9078 54.621 45.7631 54.6111 45.6133C54.6008 45.4634 54.5758 45.3187 54.5359 45.1791C54.496 45.0391 54.4526 44.9213 54.4051 44.8254C54.2741 45.0013 54.1648 45.1702 54.0772 45.3326C53.9893 45.4949 53.9259 45.6459 53.887 45.786C53.8479 45.9257 53.8324 46.0509 53.8405 46.1611C53.8482 46.2714 53.8804 46.3627 53.9365 46.4348Z" fill="#93746C"/>
<path d="M48.9239 47.7489C48.9961 47.8026 49.0758 47.8753 49.1627 47.9665C49.2497 48.0577 49.3681 48.1588 49.5177 48.2703C49.5246 48.1502 49.5274 48.0138 49.5261 47.8609C49.5246 47.7082 49.5303 47.5547 49.5423 47.4008C49.5547 47.2465 49.5781 47.1018 49.6131 46.9668C49.648 46.8313 49.703 46.7215 49.778 46.6367C49.8387 46.568 49.9077 46.5113 49.9849 46.4663C50.0619 46.421 50.1386 46.3906 50.2145 46.3751C50.4268 46.3317 50.609 46.3222 50.7613 46.3465C50.9135 46.3708 51.0597 46.4348 51.1996 46.5388C51.2619 46.5853 51.3223 46.6385 51.3805 46.6991C51.4389 46.7595 51.5024 46.8325 51.5717 46.9181C51.8891 47.2983 52.122 47.7191 52.2701 48.1806C52.4184 48.6418 52.4727 49.1172 52.4321 49.6073C52.4171 49.7972 52.3691 49.9625 52.2881 50.1033C52.2069 50.2439 52.1136 50.374 52.0083 50.493C51.9618 50.5456 51.9059 50.6016 51.8406 50.6613C51.7754 50.7209 51.716 50.7741 51.6618 50.8213C51.6276 50.883 51.5984 50.9324 51.574 50.9693C51.5496 51.0061 51.5212 51.0429 51.4887 51.0795C51.428 51.1482 51.3675 51.1978 51.307 51.2288C51.2464 51.2596 51.1872 51.2763 51.1291 51.2787C51.0712 51.2813 51.0147 51.2723 50.9601 51.2524C50.9051 51.2324 50.8538 51.205 50.8065 51.1697C50.7415 51.1216 50.6879 51.0662 50.6455 51.0044C50.6031 50.9424 50.5601 50.8801 50.5163 50.8173L48.9445 48.8967C48.8452 48.8075 48.7538 48.7263 48.67 48.6525C48.5862 48.5789 48.5148 48.503 48.4558 48.4248C48.4393 48.4012 48.419 48.3719 48.3942 48.3365C48.3698 48.3011 48.352 48.2601 48.3409 48.2142C48.3301 48.1679 48.3284 48.1196 48.3365 48.0684C48.3442 48.0176 48.3726 47.9645 48.4211 47.9096C48.484 47.8385 48.5392 47.7858 48.5864 47.7508C48.6339 47.7161 48.6771 47.6938 48.7162 47.6851C48.7551 47.6758 48.7908 47.6777 48.8229 47.6907C48.8554 47.7034 48.8889 47.7229 48.9239 47.7489ZM51.063 47.4505C51.0361 47.4153 50.9947 47.3686 50.9391 47.3099C50.8832 47.2512 50.8228 47.198 50.758 47.1496C50.6907 47.0996 50.6221 47.0636 50.5521 47.0421C50.4822 47.0202 50.42 47.0404 50.3654 47.1021C50.2803 47.1983 50.2239 47.3052 50.1962 47.423C50.1685 47.5406 50.1548 47.6604 50.1549 47.7818C50.1551 47.9453 50.1645 48.1183 50.1828 48.3011C50.2011 48.4835 50.2303 48.6645 50.2701 48.8441C50.31 49.0235 50.3619 49.1951 50.4263 49.3587C50.4906 49.5219 50.5709 49.6661 50.6673 49.7912C50.7235 49.8632 50.7936 49.9407 50.8771 50.0241C50.9607 50.1071 51.0401 50.1766 51.115 50.2323C51.1475 50.2563 51.1852 50.2731 51.2286 50.2826C51.272 50.2922 51.3109 50.2775 51.3454 50.2385C51.4445 50.1264 51.5207 49.9959 51.5734 49.8476C51.6261 49.6991 51.6593 49.5423 51.6725 49.3779C51.6859 49.2132 51.6802 49.043 51.6558 48.8674C51.6313 48.6915 51.5918 48.5189 51.5369 48.3492C51.4825 48.1795 51.4142 48.018 51.3329 47.8644C51.2515 47.7111 51.1615 47.573 51.063 47.4505Z" fill="#93746C"/>
<path d="M44.3043 48.309C45.4076 47.1154 46.2896 45.6759 46.3988 44.1146C46.452 43.3562 45.5041 39.6135 44.0829 40.5861C43.4614 41.0115 43.2407 42.2953 43.1239 42.9463C42.9698 43.8046 42.9743 44.6871 43.1354 45.5441C43.3198 46.5246 43.7109 47.4741 44.3043 48.309Z" fill="#846861"/>
<path d="M46.1905 41.8023C47.1453 42.6472 48.3397 43.2389 49.5876 43.6526C49.7167 42.3594 49.2222 41.0244 48.2608 40.0706C47.7998 39.6132 47.2345 39.2471 46.6154 38.9916C46.2121 38.8252 45.0418 38.3599 44.6144 38.6111C43.7199 39.137 45.7224 41.388 46.1905 41.8023Z" fill="#846861"/>
</g>
<defs>
<filter id="filter0_d_174_114" x="0" y="0" width="121" height="167" filterUnits="userSpaceOnUse" color-interpolation-filters="sRGB">
<feFlood flood-opacity="0" result="BackgroundImageFix"/>
<feColorMatrix in="SourceAlpha" type="matrix" values="0 0 0 0 0 0 0 0 0 0 0 0 0 0 0 0 0 0 127 0" result="hardAlpha"/>
<feOffset dy="4"/>
<feGaussianBlur stdDeviation="2"/>
<feComposite in2="hardAlpha" operator="out"/>
<feColorMatrix type="matrix" values="0 0 0 0 0 0 0 0 0 0 0 0 0 0 0 0 0 0 0.25 0"/>
<feBlend mode="normal" in2="BackgroundImageFix" result="effect1_dropShadow_174_114"/>
<feBlend mode="normal" in="SourceGraphic" in2="effect1_dropShadow_174_114" result="shape"/>
</filter>
</defs>
</svg>
