<svg width="121" height="167" viewBox="0 0 121 167" fill="none" xmlns="http://www.w3.org/2000/svg">
<g filter="url(#filter0_d_462_10779)">
<path d="M64.8051 38.7607L76.3684 47.2482L71.8529 59.8578L55.6401 58.1363L64.8051 38.7607Z" fill="#473834"/>
<path d="M36.0797 52.0956C35.6309 51.0277 45.5643 30.5769 45.5643 30.5769L64.8048 38.7607L56.1856 60.0593L36.0797 52.0956Z" fill="#725A52"/>
<path d="M53.0444 68.6053C53.2292 68.4509 64.8019 61.2418 68.7084 56.1234C75.0239 47.8483 76.4404 34.6496 76.4404 34.6496L79.41 33.4402C79.41 33.4402 86.2867 39.6712 84.8452 48.4241C83.4038 57.1772 80.536 61.4354 72.5308 66.9927C63.7921 73.0592 53.8852 71.314 53.8852 71.314L53.0444 68.6053Z" fill="#E5CA2E"/>
<path d="M79.2803 33.5487C81.2015 36.0818 83.8031 40.7193 82.8626 46.4313C81.4212 55.1843 78.5533 59.4426 70.548 64.9999C63.8212 69.6698 56.4031 69.7107 53.3438 69.4821L53.9247 71.3537C53.9247 71.3537 63.8316 73.0987 72.5703 67.0324C80.5756 61.4751 83.4435 57.2167 84.8849 48.4638C86.3262 39.7107 79.4497 33.4797 79.4497 33.4797L79.2803 33.5487Z" fill="#E0A32B"/>
<path d="M76.4406 34.6496L74.2246 29.702L76.0101 28.2092L79.4104 33.4402L76.4406 34.6496Z" fill="#E5CA2E"/>
<path d="M72.6045 28.2714C72.5181 29.2906 73.1777 30.577 73.1777 30.577L77.7431 28.4777L76.4383 26.4863L72.6045 28.2714Z" fill="#E5CA2E"/>
<path d="M53.8854 71.3139L53.0444 68.6052L55.6401 68.1406L55.1149 70.5155L53.8854 71.3139Z" fill="#60443E"/>
<path d="M73.5693 29.3304C73.7981 29.3254 74.0161 29.2468 74.2287 29.1695C74.7327 28.9859 75.2368 28.8022 75.7295 28.5949C76.0533 28.4587 76.4269 28.2193 76.3609 27.8984C76.3175 27.6873 76.0808 27.5462 75.8476 27.5252C75.6144 27.504 75.3842 27.5766 75.1652 27.6524C74.6142 27.8431 73.6267 28.0723 73.1924 28.4373C72.7838 28.7807 72.9005 29.3451 73.5693 29.3304Z" fill="#FFF431"/>
<path d="M57.5094 67.4378C60.6343 65.7345 63.7352 63.9677 66.5252 61.8309C69.3151 59.6939 71.7994 57.1653 73.4577 54.1995C73.604 53.9378 73.747 53.661 73.747 53.3669C73.747 53.0728 73.5611 52.7578 73.2495 52.6874C72.9238 52.6137 72.6062 52.8197 72.3603 53.0291C71.4641 53.7932 70.8063 54.7563 70.1014 55.6734C67.1949 59.4556 63.3857 62.5604 59.3973 65.3563C58.8741 65.7232 58.2816 66.0521 57.7842 66.4424C57.6165 66.5739 57.4728 66.592 57.3814 66.8034C57.3549 66.865 57.3382 67.531 57.5094 67.4378Z" fill="#FFF431"/>
<path d="M74.1104 50.9204C74.4093 50.9573 74.7048 50.7966 74.8892 50.5776C75.0738 50.3589 75.1681 50.0892 75.2565 49.8247C75.8475 48.0578 76.3246 46.259 76.6844 44.4408C76.7663 44.0265 76.842 43.5987 76.7442 43.1873C76.7173 43.0746 76.6749 42.9603 76.5865 42.8783C76.3833 42.6899 76.0267 42.7507 75.7908 42.9037C75.3143 43.2124 75.1358 43.7732 74.9888 44.2908C74.4656 46.1339 73.9422 47.977 73.4189 49.82C73.3864 49.9342 73.3541 50.0549 73.3893 50.1684C73.4635 50.4081 73.8147 50.8838 74.1104 50.9204Z" fill="#FFF431"/>
<path d="M75.2916 29.6051C75.2916 29.6051 75.0839 29.0062 76.4093 30.7284C77.7347 32.4506 78.6532 33.5436 78.6532 33.5436C78.6532 33.5436 78.7535 33.421 79.4841 34.0121C80.2148 34.603 80.4414 34.6073 80.4414 34.6073L79.4102 33.44L76.5431 29.0295L75.2916 29.6051Z" fill="#E0A32B"/>
<path d="M77.7432 28.4777L76.9341 28.3895L75.7295 26.8164L76.4385 26.4863L77.7432 28.4777Z" fill="#E0A32B"/>
<path d="M29.7433 62.5748C29.9886 62.5302 43.9606 61.8496 50.1924 59.322C60.267 55.2359 68.928 44.6125 68.928 44.6125L72.1519 44.9862C72.1519 44.9862 74.5203 53.5797 68.3469 60.3867C62.1736 67.1936 57.3162 69.4776 47.3293 70.4368C36.4272 71.4838 28.9341 65.2918 28.9341 65.2918L29.7433 62.5748Z" fill="#E5CA2E"/>
<path d="M71.9795 45.0173C72.1941 48.0964 71.8032 53.2988 67.7745 57.7409C61.6014 64.5478 56.7438 66.8318 46.7569 67.7909C38.3649 68.5969 31.9936 65.1138 29.5043 63.4671L28.9453 65.3443C28.9453 65.3443 36.4385 71.5362 47.3405 70.4892C57.3274 69.5301 62.185 67.2461 68.3583 60.439C74.5315 53.6322 72.1633 45.0385 72.1633 45.0385L71.9795 45.0173Z" fill="#E0A32B"/>
<path d="M68.9282 44.6126L69.8241 39.3276L72.1943 38.897L72.1521 44.9861L68.9282 44.6126Z" fill="#E5CA2E"/>
<path d="M69.2453 37.3352C68.5959 38.1666 68.4346 39.5803 68.4346 39.5803L73.5263 39.949L73.5336 37.6262L69.2453 37.3352Z" fill="#E5CA2E"/>
<path d="M28.9341 65.2917L29.7433 62.575L32.2267 63.4083L30.437 65.1917L28.9341 65.2917Z" fill="#60443E"/>
<path d="M69.4727 38.6989C69.6713 38.8029 69.9022 38.8393 70.128 38.8738C70.6628 38.9558 71.1979 39.0376 71.7367 39.0938C72.0907 39.1309 72.5454 39.1034 72.6701 38.7973C72.7521 38.596 72.6291 38.363 72.4414 38.2343C72.2536 38.1056 72.0159 38.0586 71.7855 38.0196C71.2064 37.9215 70.232 37.6493 69.6541 37.7557C69.1106 37.856 68.8922 38.3942 69.4727 38.6989Z" fill="#FFF431"/>
<path d="M34.2231 63.6933C37.8587 63.7178 41.5094 63.6765 45.1029 63.171C48.6964 62.6655 52.2493 61.6799 55.3424 59.9284C55.6154 59.7738 55.8938 59.6048 56.0599 59.3532C56.2259 59.1014 56.2445 58.7436 56.0177 58.5355C55.7805 58.3181 55.3924 58.3435 55.0639 58.4064C53.8657 58.6352 52.7592 59.1474 51.6384 59.598C47.0167 61.4561 42.0046 62.3065 37.0135 62.8078C36.3586 62.8736 35.666 62.8741 35.02 62.9722C34.8023 63.0053 34.669 62.9527 34.4716 63.0901C34.414 63.1301 34.024 63.692 34.2231 63.6933Z" fill="#FFF431"/>
<path d="M57.7512 57.4316C57.986 57.6051 58.3296 57.6075 58.611 57.5078C58.8925 57.4082 59.1254 57.222 59.3502 57.0377C60.8531 55.8059 62.2765 54.4929 63.6106 53.1075C63.9146 52.7919 64.2208 52.4616 64.3694 52.0633C64.41 51.9541 64.4382 51.836 64.4088 51.724C64.3412 51.4665 64.0017 51.3493 63.7134 51.3682C63.1314 51.4064 62.6621 51.8017 62.2443 52.1751C60.7563 53.5041 59.2682 54.8331 57.7802 56.1622C57.6881 56.2444 57.5923 56.3323 57.5582 56.4461C57.4867 56.6863 57.5187 57.26 57.7512 57.4316Z" fill="#FFF431"/>
<path d="M70.7915 39.751C70.7915 39.751 70.9517 39.1401 71.1142 41.2424C71.2765 43.3446 71.4455 44.7158 71.4455 44.7158C71.4455 44.7158 71.6006 44.6584 71.8922 45.5106C72.184 46.363 72.3755 46.4742 72.3755 46.4742L72.1517 44.9862L72.1873 39.8521L70.7915 39.751Z" fill="#E0A32B"/>
<path d="M73.5259 39.9491L72.8832 39.49L72.7402 37.5723L73.5332 37.6261L73.5259 39.9491Z" fill="#E0A32B"/>
<path d="M92.2363 0C93.7544 0.210643 95.2944 0.287758 96.8283 0.230145C97.9229 9.84955 99.0174 19.4688 100.112 29.0882C100.325 30.958 100.514 32.9505 99.5785 34.6233C98.6426 36.2962 96.1164 37.3545 94.4673 36.2368C93.057 35.2809 93.017 33.3948 93.1124 31.7892C93.4101 26.7752 94.4488 21.9991 94.1889 16.996C94.1042 15.3695 93.4811 0.172537 92.2363 0Z" fill="#568E4C"/>
<path d="M105.883 8.13008C106.425 7.05146 106.71 3.72957 108.004 3.79339C109.473 3.86582 110.898 4.68782 111.511 5.73423C107.645 15.9136 103.778 26.0929 99.9125 36.2723C99.1667 38.2355 96.2144 41.8616 94.7463 38.4882C93.6771 36.0312 95.7093 31.7299 96.4638 29.4303C98.8752 22.0797 102.387 15.0867 105.883 8.13008Z" fill="#73BA65"/>
<path d="M111.168 15.264C111.976 15.6047 112.784 15.9454 113.591 16.2861C108.652 26.755 103.102 36.9822 96.9748 46.9096C95.2495 49.7048 93.4009 52.5572 90.5779 54.4593C90.1883 54.7218 89.7384 54.975 89.2576 54.9287C85.8281 54.5992 90.5993 41.8968 91.7712 39.7926C94.6867 34.5577 98.6888 29.4745 102.507 24.7768C103.236 23.8804 110.342 14.9158 111.168 15.264Z" fill="#568E4C"/>
<path d="M90.6031 9.62006C91.5477 9.07992 92.8646 9.55594 93.5236 10.3786C94.1828 11.2013 94.3527 12.2597 94.5026 13.2711C94.9768 16.471 95.4514 19.6745 95.6538 22.8984C96.1069 30.1155 95.1923 37.3393 94.2789 44.5208C93.8542 47.861 93.4477 53.0339 90.2704 55.3052C86.8013 57.785 86.9362 53.9243 87.2896 51.7896C88.7509 42.9589 89.9143 34.1514 90.3717 25.22C90.5088 22.5435 90.5957 19.8649 90.6325 17.1855C90.6444 16.3017 90.021 9.95288 90.6031 9.62006Z" fill="#73BA65"/>
<path d="M88.0343 22.9741C89.8167 23.5164 91.599 24.0586 93.3815 24.6009C93.6832 33.9667 92.6953 43.3668 90.449 52.5075C94.2739 43.3154 100.214 34.8682 107.768 27.8797C109.282 28.9517 110.796 30.0236 112.31 31.0956C108.438 34.7155 105.757 39.2394 103.126 43.6994C97.8171 52.7018 92.4616 61.8093 89.5889 71.6987C88.8463 74.2551 88.2482 76.9099 86.7067 79.1465C83.8017 83.3619 75.4833 84.4575 74.9617 77.9779C74.8026 76.0006 76.4024 74.0596 77.1484 72.2917C78.4195 69.2788 79.2711 66.0642 80.1935 62.9495C84.0681 49.8673 86.697 36.4746 88.0343 22.9741Z" fill="#568E4C"/>
<path d="M95.5338 39.6156C99.0501 35.6287 103.082 32.0246 107.519 28.9031C101.625 34.4761 95.5719 40.2775 92.6597 47.5661C92.7031 46.1209 92.7883 44.505 93.1651 43.0963C93.5151 41.7872 94.6285 40.6421 95.5338 39.6156Z" fill="#73BA65"/>
<path d="M69.8464 58.8003C71.4643 57.8465 72.5932 58.2749 74.7526 57.243C75.0078 57.121 75.0718 57.7436 75.2835 57.9221C75.583 58.1753 74.7634 58.714 74.6329 59.0677C74.5022 59.4213 74.2274 59.7125 73.951 59.9867C72.4388 61.4872 70.1091 63.6651 67.7972 63.9762C67.2197 64.0539 63.583 64.7979 63.8229 64.1447C64.5061 62.2836 67.0579 61.7636 67.5351 61.3168C68.5747 60.3435 68.1817 59.7813 69.8464 58.8003Z" fill="#AD3E3B"/>
<path d="M69.981 62.2273C67.8064 63.7517 62.4177 62.625 61.7276 67.2063C61.0374 71.7877 66.6341 78.6854 70.9898 80.4127C75.3456 82.1402 80.9979 79.5361 84.2869 77.3423C88.1279 74.7802 92.4401 69.2568 88.4534 63.1084C84.9656 57.7297 80.0129 54.2008 74.9771 57.1112C71.9101 58.8837 73.5428 59.7304 69.981 62.2273Z" fill="#D34D46"/>
<path d="M78.2976 56.0755C80.6588 57.2462 82.8223 59.5101 84.6033 62.2569C88.5902 68.4053 84.278 73.9287 80.4367 76.4908C77.9128 78.1744 73.9968 80.0992 70.3433 80.1231C70.561 80.2312 70.7769 80.3283 70.9897 80.4127C75.3455 82.1402 80.9977 79.5361 84.2867 77.3423C88.128 74.7802 92.44 69.2568 88.4533 63.1084C85.7383 58.9217 82.1359 55.8563 78.2976 56.0755Z" fill="#AD3E3B"/>
<path opacity="0.27" d="M64.7593 68.4753C64.6517 69.6245 65.0069 70.7892 65.6492 71.781C66.0236 72.3593 66.5175 72.9018 67.1833 73.1844C67.849 73.4669 68.7112 73.4332 69.2409 72.9677C69.3766 72.8484 69.489 72.7011 69.533 72.5336C69.5949 72.2977 69.5167 72.0521 69.4393 71.82C69.0756 70.7294 68.7124 69.5832 68.956 68.4648C69.0723 67.9309 69.3238 67.4263 69.4199 66.8889C69.5159 66.3516 69.419 65.7345 68.9619 65.3869C68.2561 64.8499 66.9357 65.1599 66.2737 65.6187C65.3605 66.252 64.854 67.4656 64.7593 68.4753Z" fill="white"/>
<path opacity="0.27" d="M69.5786 74.233C69.1352 74.5157 69.0682 75.1505 69.3759 75.5575C69.6835 75.9645 70.2765 76.1393 70.8103 76.0637C71.0925 76.0237 71.3866 75.9029 71.5097 75.6666C71.5988 75.4954 71.5823 75.2934 71.5328 75.1092C71.4412 74.7687 71.2354 74.4463 70.9225 74.2445C70.6094 74.0428 70.1841 73.9767 69.8328 74.1153L69.5786 74.233Z" fill="white"/>
<path d="M28.8307 37.4182L28.7655 37.3104C28.7266 37.3518 28.512 37.2278 28.6765 37.3629C28.7273 37.3812 28.7787 37.3998 28.8307 37.4182Z" fill="#ED9254"/>
<path d="M24.6091 56.0673C28.1678 56.0521 30.8505 51.3109 32.322 48.7367C33.6829 46.3565 35.7738 41.5791 32.2832 39.0491C31.2566 38.305 29.8093 37.8424 28.6474 37.4266L29.0414 38.0798C28.0552 36.742 25.7227 34.6488 24.3201 34.9768C22.846 35.3215 20.8507 35.6677 19.5317 36.3366C14.6199 38.8284 13.2967 41.45 13.775 46.1237C14.4108 52.3367 20.1318 56.0866 24.6091 56.0673Z" fill="#ED9254"/>
<path d="M24.58 55.9805C25.3761 55.9772 26.1281 55.7369 26.8326 55.3376C22.7 54.5895 18.1777 51.0254 17.6165 45.5415C17.1383 40.8679 18.4614 38.2462 23.3732 35.7544C23.9586 35.4575 24.6773 35.2243 25.4246 35.0265C25.0143 34.8718 24.626 34.8116 24.2908 34.8901C22.8167 35.2349 20.8214 35.5808 19.5024 36.25C14.5906 38.7417 13.2674 41.3632 13.7457 46.0369C14.3816 52.2499 20.1027 55.9999 24.58 55.9805Z" fill="#D8864E"/>
<path d="M23.844 56.0976C24.3253 56.0954 24.7903 56.0062 25.2385 55.8484C20.8899 55.4932 15.7254 51.8188 15.1229 45.9336C14.6447 41.26 15.9678 38.6383 20.8796 36.1465C21.8568 35.6509 23.2055 35.3325 24.4382 35.0605C24.1206 34.9699 23.8209 34.9447 23.5548 35.007C22.0808 35.3518 20.0854 35.6979 18.7666 36.3669C13.8548 38.8586 12.5315 41.4802 13.0099 46.154C13.6458 52.3669 19.3667 56.1168 23.844 56.0976Z" fill="#B77446"/>
<path d="M40.1498 54.3803C40.1401 54.3684 40.131 54.3559 40.1211 54.3445C40.1295 54.3556 40.1394 54.3678 40.1498 54.3803Z" fill="#D8864E"/>
<path d="M27.7798 67.3212C31.0589 67.2158 32.4021 63.1191 35.2972 61.678C36.9622 60.8494 38.4435 59.7199 39.5185 58.2023C39.9794 57.5517 40.3154 55.9786 39.7953 55.1076L38.5725 54.595C37.4698 54.084 37.6067 55.8505 36.8712 54.6942C37.5859 53.2389 37.706 50.4623 38.4631 48.9424C39.5518 46.7567 39.4199 43.4894 38.4306 40.9588C36.2478 35.3748 30.8169 32.3198 26.858 33.2575C25.594 33.5569 22.4766 35.3066 26.2378 36.1795C27.4512 36.4611 28.7659 38.2326 29.6492 39.5657C32.8031 44.3252 23.8879 50.2914 22.7628 52.0044C21.4684 53.975 19.7758 56.4198 19.9071 58.8468C20.0668 61.7996 23.2444 67.467 27.7798 67.3212Z" fill="#D8864E"/>
<path d="M40.1499 54.3809C40.1892 54.4302 40.2254 54.482 40.2584 54.5368L40.2624 54.5386C40.2431 54.4882 40.1911 54.4309 40.1499 54.3809Z" fill="#D8864E"/>
<path d="M27.494 67.3624C27.8185 67.3521 28.1236 67.3021 28.4136 67.2198C24.4051 66.6055 21.6666 61.5407 21.5186 58.805C21.3873 56.378 23.0799 53.9332 24.3743 51.9625C25.4994 50.2496 34.4146 44.2835 31.2607 39.5239C30.3774 38.1911 29.0627 36.4194 27.8493 36.1377C24.0881 35.2648 27.2055 33.515 28.4695 33.2156C28.5537 33.1957 28.6386 33.1783 28.7239 33.1619C27.9791 33.0942 27.2538 33.1373 26.5724 33.2987C25.3084 33.5981 22.1909 35.3478 25.9522 36.2207C27.1654 36.5023 28.4803 38.2739 29.3636 39.607C32.5175 44.3665 23.6023 50.3326 22.477 52.0457C21.1826 54.0162 19.49 56.461 19.6215 58.8882C19.781 61.8407 22.9586 67.5084 27.494 67.3624Z" fill="#B77446"/>
<path d="M40.028 74.9093C43.1394 76.119 43.4134 77.4036 45.8453 76.2649L48.5002 74.5766C50.6532 72.4238 51.4591 67.6632 50.0978 64.4039C49.0422 61.8768 46.3312 59.3857 43.6577 58.7807C41.9144 58.3862 40.9952 59.578 39.7846 60.4245C38.3878 61.4011 37.0223 62.4596 36.3092 64.0799C34.8009 67.5062 35.4664 73.1355 40.028 74.9093Z" fill="#B77446"/>
<path d="M41.0778 81.2978C43.7446 80.9372 47.1603 78.2688 48.725 75.2763C50.7051 71.4894 47.5872 76.3159 41.5717 73.3799C39.9358 72.5815 38.922 71.6936 38.2866 70.1421C37.3596 67.8787 38.4046 66.041 39.7575 64.5523C41.5999 62.5251 44.4476 59.2195 44.7422 56.0082C45.0604 52.5408 42.8047 50.2165 40.6707 48.592C38.334 46.8129 38.2655 50.7534 34.7174 55.6424C32.5598 58.6151 30.2562 61.0957 28.6008 63.1132C25.8901 66.4168 25.4424 69.1359 27.0821 72.6098C28.3055 75.2019 32.4541 82.4637 41.0778 81.2978Z" fill="#ED9254"/>
<path d="M38.8574 81.5305C33.9464 79.88 31.3616 75.2723 30.4392 73.3181C28.7995 69.8443 29.2471 67.1253 31.9579 63.8215C33.6134 61.804 35.9169 59.3235 38.0745 56.3507C40.1435 53.4997 41.0295 50.972 41.8717 49.7122C41.4752 49.3492 41.0645 49.0144 40.6582 48.705C38.3214 46.926 38.2528 50.8665 34.7047 55.7554C32.5473 58.7282 30.2437 61.2087 28.5881 63.2262C25.8774 66.5299 25.4297 69.2489 27.0694 72.7228C28.1834 75.0831 31.7228 81.3146 38.8574 81.5305Z" fill="#D8864E"/>
<path d="M37.5775 81.3803C31.8452 80.1606 28.9001 74.9399 27.902 72.8254C26.2624 69.3516 26.7101 66.6324 29.4207 63.3288C31.0764 61.3111 33.3799 58.8308 35.5373 55.858C38.3227 52.02 38.9639 48.7672 40.2413 48.4064C38.2675 47.3361 38.0138 51.1 34.67 55.7074C32.5126 58.6802 30.2089 61.1607 28.5534 63.1784C25.8427 66.4818 25.3951 69.2009 27.0347 72.6748C28.082 74.8936 31.2727 80.5324 37.5775 81.3803Z" fill="#B77446"/>
<path d="M26.4216 61.783C26.7344 61.6381 27.2086 60.7009 27.4069 60.3965C27.7754 59.8309 27.8701 59.2145 28.3534 58.7389C29.3904 57.7188 30.457 57.1977 31.1832 55.8626C31.9947 54.3704 32.5638 52.8779 33.5872 51.5164C34.6161 50.1474 35.736 48.7246 36.4013 47.1227C37.3646 44.8032 36.9788 41.2357 34.9621 39.0569L34.1238 37.9049C33.8539 37.6962 32.8663 37.4216 32.5465 37.5598C31.9376 37.8231 32.3266 38.4293 32.5016 38.9336C32.9107 40.112 33.3614 41.3378 33.3447 42.5288C33.3257 43.8871 32.9554 45.2375 32.4434 46.4304C31.8128 47.8998 30.2982 48.9797 29.2298 50.0776C28.0367 51.3033 26.7674 52.5206 25.8187 53.9522C24.8759 55.3751 24.1382 56.6898 24.4039 58.6199C24.5233 59.4856 25.1432 62.3747 26.4216 61.783Z" fill="#ED9254"/>
<path d="M44.4315 73.2744C45.4047 73.4648 46.5597 73.4413 47.5187 73.6985C48.1164 73.8588 48.7814 73.4425 49.3301 73.5574C49.9218 72.846 50.152 71.8291 50.5283 70.9591C51.242 69.3088 51.7447 67.4595 51.1992 65.5471C50.8049 64.1647 50.3002 62.6125 49.1307 61.5774C48.295 60.8378 47.2169 60.3427 46.2125 59.9924C44.8368 59.5123 43.8861 60.3358 43.1857 61.4977C42.4354 62.7425 42.0463 63.6312 41.2899 64.88C40.4236 66.3103 39.3313 67.1294 40.017 69.1834C40.7291 71.316 42.4849 72.8938 44.4315 73.2744Z" fill="#D8864E"/>
<path d="M49.4591 73.5878C49.4161 73.5763 49.3732 73.5663 49.3301 73.5574C49.3042 73.5884 49.2788 73.6198 49.2515 73.6496L49.4591 73.5878Z" fill="#D8864E"/>
<path d="M47.8043 72.5405L48.2789 72.6653C49.2112 73.0634 50.5846 71.3567 50.9067 70.4902C51.3161 69.3892 51.5941 67.8489 51.4775 66.5438C51.1675 63.0764 48.2137 61.4445 45.7259 61.9957C43.2755 62.5384 42.4036 64.6908 42.7223 67.7315C43.1073 71.4064 45.5373 71.5357 47.8043 72.5405Z" fill="#ED9254"/>
<path d="M40.9633 59.7745C40.6228 59.9398 40.4604 59.7199 40.2728 59.2306C40.0851 58.7414 39.9495 58.2659 40.203 58.1514C40.4566 58.0369 40.8238 58.5993 40.9524 58.8919C41.0812 59.1846 41.2744 59.6235 40.9633 59.7745Z" fill="#FECC84"/>
<path d="M39.3127 63.0445C38.9054 62.9804 38.8774 62.7263 38.9759 62.2565C39.0743 61.7868 39.2134 61.356 39.5118 61.4101C39.8102 61.4643 39.8374 62.0879 39.7939 62.3779C39.7502 62.6681 39.6848 63.1032 39.3127 63.0445Z" fill="#FECC84"/>
<path d="M34.1253 63.5072C33.9699 63.1124 34.1943 63.0278 34.6886 63.0119C35.1828 62.9959 35.6619 63.0269 35.7691 63.3177C35.8761 63.6087 35.3036 63.777 35.0075 63.803C34.7114 63.829 34.2672 63.8677 34.1253 63.5072Z" fill="#FECC84"/>
<path d="M36.2287 62.0205C36.3257 61.6471 36.5791 61.7209 37.0349 62.0042C37.4906 62.2872 37.9047 62.5946 37.8263 62.8652C37.7481 63.1358 37.1302 62.9145 36.8473 62.7566C36.5644 62.5986 36.1402 62.3616 36.2287 62.0205Z" fill="#FECC84"/>
<path d="M38.913 60.0423C39.0559 60.44 38.8274 60.5165 38.3304 60.5159C37.8333 60.5154 37.3529 60.4687 37.2551 60.1761C37.1573 59.8832 37.7381 59.7348 38.0365 59.719C38.3347 59.7029 38.7822 59.6789 38.913 60.0423Z" fill="#FECC84"/>
<path d="M37.4142 65.9004C37.1839 66.1936 36.9586 66.0388 36.6079 65.6278C36.257 65.2166 35.9565 64.7994 36.1313 64.5895C36.3064 64.3795 36.8403 64.7941 37.0643 65.0337C37.2885 65.273 37.6245 65.6323 37.4142 65.9004Z" fill="#FECC84"/>
<path d="M35.7639 41.2463C35.5406 41.5454 35.313 41.3947 34.9547 40.9897C34.5966 40.5846 34.2883 40.1722 34.4582 39.958C34.6281 39.7439 35.169 40.1487 35.3972 40.3841C35.6255 40.6197 35.968 40.9731 35.7639 41.2463Z" fill="#FECC84"/>
<path d="M35.6806 45.12C35.3073 45.2205 35.1805 44.9822 35.0741 44.4814C34.9677 43.9806 34.912 43.5018 35.1883 43.4353C35.4647 43.3687 35.7403 43.9698 35.8207 44.2721C35.9012 44.5745 36.0218 45.028 35.6806 45.12Z" fill="#FECC84"/>
<path d="M31.4444 47.6575C31.1521 47.3324 31.3093 47.1591 31.7241 46.945C32.1392 46.7308 32.5601 46.5687 32.7693 46.8113C32.9784 47.054 32.5585 47.4493 32.3165 47.5937C32.0745 47.7382 31.7116 47.9546 31.4444 47.6575Z" fill="#FECC84"/>
<path d="M32.6358 45.3529C32.5672 44.9473 32.8131 44.9179 33.3166 45.013C33.8198 45.1079 34.2974 45.2434 34.3403 45.5406C34.3832 45.8378 33.7666 45.8687 33.4614 45.8271C33.1562 45.7855 32.6985 45.7232 32.6358 45.3529Z" fill="#FECC84"/>
<path d="M33.3252 49.7593C33.7324 49.8291 33.7567 50.0832 33.6511 50.5503C33.5456 51.0174 33.3999 51.4449 33.1015 51.3865C32.8033 51.328 32.7853 50.7058 32.8333 50.4171C32.8811 50.1284 32.953 49.6953 33.3252 49.7593Z" fill="#FECC84"/>
<path d="M29.885 50.6254C29.592 50.3008 29.7487 50.1272 30.1631 49.912C30.5774 49.6968 30.9979 49.5338 31.2076 49.7762C31.4172 50.0185 30.9982 50.4148 30.7567 50.5598C30.5151 50.7047 30.1527 50.922 29.885 50.6254Z" fill="#FECC84"/>
<path d="M32.2921 53.0688C32.6967 53.0873 32.7531 53.3413 32.7111 53.8278C32.669 54.3144 32.5829 54.7659 32.2857 54.7451C31.9884 54.7242 31.8903 54.0965 31.8995 53.7978C31.9088 53.4996 31.9226 53.0519 32.2921 53.0688Z" fill="#FECC84"/>
<path d="M29.4878 52.4808C29.4194 52.0752 29.6653 52.0459 30.1687 52.1408C30.672 52.2358 31.1495 52.3713 31.1924 52.6686C31.2353 52.9657 30.6187 52.9966 30.3134 52.9551C30.0082 52.9135 29.5505 52.8512 29.4878 52.4808Z" fill="#FECC84"/>
<path d="M31.1123 55.3093C31.5196 55.3792 31.5438 55.6332 31.4383 56.1004C31.3327 56.5675 31.187 56.9951 30.8886 56.9366C30.5902 56.8782 30.5724 56.256 30.6204 55.9673C30.6683 55.6785 30.7403 55.2454 31.1123 55.3093Z" fill="#FECC84"/>
<path d="M27.6721 56.1752C27.3791 55.8507 27.5358 55.6771 27.9502 55.4619C28.3645 55.2467 28.7852 55.0836 28.9948 55.326C29.2043 55.5684 28.7855 55.9647 28.5439 56.1097C28.3022 56.2546 27.9398 56.4719 27.6721 56.1752Z" fill="#FECC84"/>
<path d="M27.2749 58.0308C27.2065 57.6253 27.4524 57.5959 27.9557 57.6909C28.459 57.7858 28.9365 57.9213 28.9796 58.2185C29.0224 58.5158 28.4058 58.5466 28.1005 58.505C27.7954 58.4634 27.3376 58.4013 27.2749 58.0308Z" fill="#FECC84"/>
<path d="M30.0868 58.6051C29.6934 58.6461 29.601 58.397 29.5692 57.898C29.5375 57.399 29.5534 56.9287 29.8435 56.9059C30.1337 56.8832 30.3217 57.5047 30.3572 57.8083C30.3928 58.1121 30.4463 58.5677 30.0868 58.6051Z" fill="#FECC84"/>
<path d="M26.3629 58.7202C26.7553 58.6757 26.8496 58.9243 26.8858 59.4238C26.9219 59.9231 26.91 60.3941 26.6205 60.4194C26.331 60.4448 26.1377 59.824 26.0996 59.5202C26.0616 59.2165 26.0044 58.7607 26.3629 58.7202Z" fill="#FECC84"/>
<path d="M29.9321 60.4934C30.1398 60.8707 29.9352 60.9888 29.4598 61.0765C28.9846 61.1641 28.517 61.202 28.3711 60.9229C28.2253 60.6436 28.754 60.3903 29.0364 60.3212C29.3186 60.2521 29.7422 60.1486 29.9321 60.4934Z" fill="#FECC84"/>
<path d="M26.8076 62.6208C27.0153 62.9982 26.8106 63.1162 26.3353 63.2037C25.8599 63.2913 25.3925 63.3294 25.2466 63.0501C25.1008 62.7708 25.6295 62.5177 25.9119 62.4484C26.1941 62.3796 26.6177 62.276 26.8076 62.6208Z" fill="#FECC84"/>
<path d="M30.2367 53.9947C30.6402 54.1128 30.6333 54.3631 30.4681 54.8043C30.303 55.2456 30.1024 55.6436 29.8077 55.55C29.5131 55.4564 29.5723 54.8488 29.6567 54.574C29.7414 54.2988 29.868 53.8866 30.2367 53.9947Z" fill="#FECC84"/>
<path d="M22.6743 43.7774C23.0777 43.8957 23.0708 44.1458 22.9057 44.587C22.7406 45.0283 22.54 45.4263 22.2452 45.3327C21.9504 45.2389 22.0098 44.6315 22.0943 44.3566C22.1787 44.0818 22.3054 43.6693 22.6743 43.7774Z" fill="#FECC84"/>
<path d="M23.666 48.4918C23.6955 48.8957 23.4439 48.9005 22.9443 48.7585C22.4448 48.6166 21.9754 48.4371 21.9612 48.1417C21.947 47.8466 22.5733 47.8763 22.8778 47.9467C23.1825 48.017 23.6391 48.1227 23.666 48.4918Z" fill="#FECC84"/>
<path d="M20.955 48.6713C20.9845 49.0752 20.733 49.0801 20.2334 48.9381C19.7339 48.7959 19.2644 48.6166 19.2502 48.3213C19.2361 48.026 19.8625 48.0558 20.167 48.1262C20.4714 48.1967 20.9281 48.3024 20.955 48.6713Z" fill="#FECC84"/>
<path d="M21.2606 50.4879C21.5883 50.7779 21.4595 50.9744 21.0862 51.2472C20.7131 51.5201 20.3269 51.741 20.0912 51.5234C19.8555 51.3058 20.2088 50.8489 20.4238 50.67C20.6387 50.4914 20.9612 50.2231 21.2606 50.4879Z" fill="#FECC84"/>
<path d="M28.3368 42.7025C28.7437 42.7845 28.7602 43.0379 28.6396 43.4993C28.519 43.9606 28.3594 44.3815 28.0616 44.3142C27.7637 44.2469 27.7652 43.6274 27.8223 43.3417C27.8793 43.0561 27.965 42.6275 28.3368 42.7025Z" fill="#FECC84"/>
<path d="M21.8792 42.932C21.4803 42.7874 21.5049 42.5411 21.7025 42.1172C21.9 41.6934 22.1304 41.3147 22.4211 41.4277C22.7119 41.5405 22.6094 42.1357 22.5049 42.401C22.4003 42.6663 22.2436 43.0643 21.8792 42.932Z" fill="#FECC84"/>
<path d="M33.6565 53.1981C33.349 52.8866 33.4948 52.7035 33.8937 52.4647C34.2924 52.2261 34.7 52.0393 34.9205 52.2723C35.1409 52.5054 34.7475 52.9267 34.5161 53.0856C34.2846 53.2444 33.9374 53.4827 33.6565 53.1981Z" fill="#FECC84"/>
<path d="M36.0053 48.549C35.607 48.4021 35.633 48.1562 35.8331 47.7339C36.0332 47.3116 36.2658 46.9347 36.5563 47.049C36.8466 47.1635 36.7407 47.7576 36.6346 48.022C36.5284 48.2863 36.3694 48.6831 36.0053 48.549Z" fill="#FECC84"/>
<path d="M34.1236 42.3326C34.4065 42.6656 34.2429 42.8325 33.8186 43.0317C33.3945 43.2307 32.966 43.3778 32.7639 43.1296C32.5618 42.8813 32.9971 42.5024 33.2451 42.3669C33.4931 42.2316 33.8651 42.0285 34.1236 42.3326Z" fill="#FECC84"/>
<path d="M35.2183 48.6867C35.1407 49.0673 34.8859 49.0053 34.4202 48.7428C33.9546 48.4801 33.5293 48.1909 33.5933 47.9144C33.6575 47.6382 34.2808 47.8307 34.5689 47.9758C34.857 48.1212 35.2892 48.3389 35.2183 48.6867Z" fill="#FECC84"/>
<path d="M34.5431 67.4137C34.1492 67.2492 34.1871 67.007 34.4087 66.5978C34.6302 66.1886 34.8824 65.826 35.1693 65.953C35.4559 66.0802 35.321 66.664 35.2016 66.9211C35.0822 67.1782 34.903 67.5639 34.5431 67.4137Z" fill="#FECC84"/>
<path d="M31.8817 66.2451C31.7439 65.8465 31.9739 65.7734 32.4722 65.7808C32.9705 65.7882 33.4512 65.8411 33.545 66.1346C33.6389 66.428 33.0548 66.5681 32.7556 66.5799C32.4564 66.5917 32.0075 66.6094 31.8817 66.2451Z" fill="#FECC84"/>
<path d="M32.7034 68.5312C32.5657 68.1324 32.7956 68.0594 33.294 68.0666C33.7923 68.074 34.273 68.1271 34.3668 68.4206C34.4608 68.714 33.8768 68.8542 33.5775 68.8658C33.2781 68.8776 32.8293 68.8953 32.7034 68.5312Z" fill="#FECC84"/>
<path d="M36.9404 70.7838C36.9747 71.1881 36.7238 71.196 36.2235 71.0598C35.7232 70.9235 35.2526 70.7493 35.2347 70.4537C35.2169 70.1581 35.8424 70.1803 36.1473 70.2473C36.4518 70.314 36.9089 70.4142 36.9404 70.7838Z" fill="#FECC84"/>
<path d="M33.8639 69.6462C34.2091 69.9137 34.0978 70.1219 33.7516 70.4261C33.4055 70.7305 33.0426 70.9835 32.7935 70.7821C32.5444 70.5807 32.8567 70.0921 33.0543 69.8951C33.2519 69.6977 33.5485 69.4021 33.8639 69.6462Z" fill="#FECC84"/>
<path d="M35.6618 72.3543C35.7586 72.7586 35.5183 72.8058 35.0152 72.7463C34.5121 72.6867 34.0314 72.584 33.9676 72.2873C33.9037 71.9905 34.5094 71.9152 34.8133 71.9351C35.1174 71.9551 35.5732 71.9852 35.6618 72.3543Z" fill="#FECC84"/>
<path d="M32.1793 71.254C32.5864 71.3092 32.6201 71.5637 32.5328 72.0371C32.4454 72.5107 32.3167 72.9461 32.0183 72.8983C31.7198 72.8507 31.6785 72.2258 31.7155 71.9337C31.7521 71.6419 31.8074 71.2036 32.1793 71.254Z" fill="#FECC84"/>
<path d="M27.6041 52.587C27.2102 52.4226 27.2482 52.1802 27.4697 51.7711C27.6912 51.3619 27.9434 50.9992 28.2303 51.1264C28.517 51.2536 28.382 51.8373 28.2626 52.0943C28.1432 52.3514 27.9641 52.7372 27.6041 52.587Z" fill="#FECC84"/>
<path d="M25.765 53.7044C25.6272 53.3058 25.8572 53.2326 26.3555 53.24C26.8536 53.2474 27.3345 53.3003 27.4283 53.5938C27.5224 53.8872 26.9383 54.0274 26.6389 54.0392C26.3397 54.051 25.8908 54.0686 25.765 53.7044Z" fill="#FECC84"/>
<path d="M26.9249 54.8197C27.2702 55.087 27.1587 55.2954 26.8126 55.5997C26.4665 55.9039 26.1036 56.1569 25.8545 55.9555C25.6055 55.7542 25.9177 55.2655 26.1153 55.0684C26.313 54.8711 26.6095 54.5753 26.9249 54.8197Z" fill="#FECC84"/>
<path d="M25.2408 56.4273C25.6479 56.4824 25.6816 56.7369 25.5943 57.2105C25.5069 57.6839 25.3782 58.1193 25.0798 58.0715C24.7813 58.024 24.74 57.399 24.777 57.107C24.8136 56.815 24.8689 56.377 25.2408 56.4273Z" fill="#FECC84"/>
<path d="M19.7565 44.7785C19.4636 44.4538 19.6203 44.2802 20.0347 44.0651C20.449 43.8499 20.8695 43.6869 21.0791 43.9293C21.2888 44.1715 20.8698 44.5679 20.6283 44.7129C20.3867 44.8577 20.0243 45.0752 19.7565 44.7785Z" fill="#FECC84"/>
<path d="M19.3589 46.6338C19.2905 46.2283 19.5364 46.1989 20.0397 46.2939C20.5429 46.3889 21.0205 46.5244 21.0634 46.8216C21.1064 47.1188 20.4897 47.1496 20.1845 47.1082C19.8795 47.0666 19.4216 47.0043 19.3589 46.6338Z" fill="#FECC84"/>
<path d="M19.6886 41.1903C19.2947 41.0259 19.3326 40.7835 19.5542 40.3743C19.7757 39.9653 20.0279 39.6025 20.3146 39.7297C20.6014 39.8569 20.4664 40.4406 20.3469 40.6978C20.2275 40.9548 20.0484 41.3404 19.6886 41.1903Z" fill="#FECC84"/>
<path d="M17.8489 42.3076C17.7112 41.9088 17.9412 41.8356 18.4395 41.843C18.9376 41.8504 19.4183 41.9033 19.5123 42.1969C19.6064 42.4904 19.0223 42.6304 18.7229 42.6422C18.4236 42.654 17.9748 42.6718 17.8489 42.3076Z" fill="#FECC84"/>
<path d="M19.0094 43.4226C19.3547 43.69 19.2432 43.8983 18.8971 44.2026C18.551 44.507 18.1881 44.7598 17.939 44.5585C17.69 44.3571 18.0021 43.8685 18.1998 43.6713C18.3974 43.4742 18.694 43.1784 19.0094 43.4226Z" fill="#FECC84"/>
<path d="M17.325 45.0306C17.7321 45.0856 17.7657 45.3401 17.6783 45.8138C17.5911 46.2872 17.4624 46.7225 17.1638 46.6749C16.8653 46.6273 16.824 46.0023 16.861 45.7103C16.8979 45.4183 16.953 44.9802 17.325 45.0306Z" fill="#FECC84"/>
<path d="M24.436 41.6345C24.7511 41.9385 24.6114 42.1266 24.2217 42.3779C23.8321 42.6292 23.4319 42.8285 23.2058 42.6012C22.9795 42.3738 23.3585 41.9391 23.5842 41.7727C23.8097 41.6065 24.1482 41.357 24.436 41.6345Z" fill="#FECC84"/>
<path d="M24.6726 39.7284C24.7738 40.1322 24.5343 40.1822 24.0313 40.1278C23.5285 40.0733 23.0477 39.9755 22.9807 39.679C22.9138 39.3824 23.5176 39.3005 23.8213 39.3173C24.125 39.334 24.5804 39.3593 24.6726 39.7284Z" fill="#FECC84"/>
<path d="M22.7701 46.8982C22.5207 47.175 22.303 47.0085 21.9736 46.5816C21.6441 46.1547 21.3657 45.7245 21.5542 45.527C21.7428 45.3295 22.2566 45.7706 22.4684 46.0206C22.6802 46.2705 22.9979 46.6454 22.7701 46.8982Z" fill="#FECC84"/>
<path d="M24.8005 45.2531C25.2015 45.3868 25.1844 45.6347 25.0005 46.0661C24.8167 46.4976 24.5986 46.8846 24.306 46.7798C24.0136 46.675 24.0977 46.0742 24.1938 45.8048C24.29 45.5353 24.4342 45.131 24.8005 45.2531Z" fill="#FECC84"/>
<path d="M26.5168 43.9731C26.6854 44.3645 26.4652 44.4573 25.9746 44.4909C25.4841 44.5245 25.0068 44.5104 24.8902 44.2219C24.7734 43.9332 25.3363 43.7437 25.6295 43.7071C25.923 43.6705 26.3629 43.6158 26.5168 43.9731Z" fill="#FECC84"/>
<path d="M25.2834 42.9424C24.9216 42.7007 25.014 42.4811 25.3291 42.1453C25.6441 41.8095 25.98 41.5242 26.2417 41.7071C26.5034 41.89 26.237 42.4092 26.059 42.6245C25.881 42.8398 25.6139 43.163 25.2834 42.9424Z" fill="#FECC84"/>
<path d="M26.8064 41.1798C26.4014 41.1577 26.3472 40.9035 26.3938 40.4181C26.4405 39.9327 26.5309 39.4824 26.8283 39.506C27.1259 39.5296 27.2183 40.1573 27.2064 40.4552C27.1944 40.7532 27.1766 41.2001 26.8064 41.1798Z" fill="#FECC84"/>
<path d="M36.9454 72.8573C37.3525 72.9123 37.3862 73.1669 37.2989 73.6404C37.2115 74.114 37.0828 74.5494 36.7844 74.5016C36.4859 74.4541 36.4446 73.8291 36.4816 73.537C36.5184 73.245 36.5735 72.8069 36.9454 72.8573Z" fill="#FECC84"/>
<path d="M39.1837 75.5416C39.5908 75.5966 39.6245 75.8513 39.5372 76.3247C39.4499 76.7983 39.3211 77.2335 39.0227 77.1859C38.7242 77.1383 38.6829 76.5134 38.7199 76.2213C38.7565 75.9291 38.8117 75.4912 39.1837 75.5416Z" fill="#FECC84"/>
<path d="M43.2012 76.2281C43.2845 76.6333 43.0414 76.672 42.5378 76.5953C42.0342 76.5185 41.5548 76.4001 41.5009 76.1029C41.4471 75.8057 42.0584 75.7518 42.3633 75.7821C42.6681 75.8125 43.1252 75.858 43.2012 76.2281Z" fill="#FECC84"/>
<path d="M33.6523 74.2049C33.6514 73.8045 33.9055 73.8173 34.3994 73.9927C34.8933 74.1681 35.3542 74.378 35.3476 74.6702C35.3408 74.9626 34.711 74.8888 34.4088 74.7981C34.1066 74.707 33.6533 74.5707 33.6523 74.2049Z" fill="#FECC84"/>
<path d="M36.5479 75.8457C36.9228 75.7492 37.0474 75.9886 37.1485 76.4897C37.2496 76.9907 37.3004 77.4692 37.0228 77.5327C36.7452 77.5962 36.4756 76.9931 36.3985 76.6904C36.3211 76.3878 36.2053 75.9339 36.5479 75.8457Z" fill="#FECC84"/>
<path d="M35.6954 68.8811C35.3015 68.7165 35.3395 68.4741 35.561 68.0651C35.7825 67.6559 36.0349 67.2933 36.3216 67.4203C36.6083 67.5476 36.4735 68.1313 36.3539 68.3884C36.2345 68.6455 36.0554 69.0312 35.6954 68.8811Z" fill="#FECC84"/>
<path d="M43.5511 68.0923C43.4134 67.6936 43.6433 67.6205 44.1416 67.6279C44.6398 67.6352 45.1205 67.6883 45.2145 67.9818C45.3085 68.2751 44.7244 68.4153 44.425 68.4271C44.1258 68.4389 43.677 68.4564 43.5511 68.0923Z" fill="#FECC84"/>
<path d="M49.1993 69.2331C48.7924 69.1829 48.7556 68.9284 48.8367 68.4528C48.9179 67.9772 49.0408 67.5396 49.3392 67.5836C49.6378 67.6276 49.6866 68.2532 49.6536 68.5463C49.6206 68.8392 49.5711 69.2789 49.1993 69.2331Z" fill="#FECC84"/>
<path d="M44.3729 70.3786C44.2351 69.9798 44.4651 69.9067 44.9634 69.9141C45.4616 69.9215 45.9424 69.9744 46.0363 70.268C46.1303 70.5614 45.5462 70.7014 45.247 70.7132C44.9476 70.725 44.4987 70.7427 44.3729 70.3786Z" fill="#FECC84"/>
<path d="M46.9907 65.4558C46.5859 65.4359 46.5303 65.1819 46.574 64.6957C46.6177 64.2096 46.7053 63.7585 47.0027 63.7803C47.3001 63.8022 47.3961 64.4299 47.3859 64.7283C47.3757 65.0266 47.3603 65.4739 46.9907 65.4558Z" fill="#FECC84"/>
<path d="M47.3644 70.7285C46.9705 70.5641 47.0084 70.3217 47.2299 69.9125C47.4515 69.5033 47.7037 69.1407 47.9905 69.2677C48.2772 69.3949 48.1423 69.9787 48.0229 70.2358C47.9034 70.493 47.7243 70.8788 47.3644 70.7285Z" fill="#FECC84"/>
<path d="M48.4596 66.7669C48.0657 66.6024 48.1036 66.3602 48.3252 65.9508C48.5467 65.5416 48.7989 65.179 49.0858 65.3061C49.3725 65.4334 49.2375 66.0171 49.1181 66.2741C48.9987 66.5315 48.8195 66.9172 48.4596 66.7669Z" fill="#FECC84"/>
<path d="M46.0822 70.1391C45.6765 70.1102 45.6266 69.8557 45.6815 69.3725C45.7366 68.8894 45.8349 68.442 46.1328 68.4705C46.4307 68.4991 46.5125 69.1265 46.4955 69.4235C46.4785 69.7203 46.4528 70.1655 46.0822 70.1391Z" fill="#FECC84"/>
<path d="M48.101 68.3406C47.851 68.6167 47.6334 68.4501 47.3048 68.0224C46.9762 67.5951 46.6986 67.1643 46.8876 66.9674C47.0767 66.7704 47.5897 67.2124 47.8011 67.4625C48.0125 67.7129 48.3295 68.0883 48.101 68.3406Z" fill="#FECC84"/>
<path d="M46.3903 65.6521C46.5138 66.0531 46.2799 66.1173 45.7793 66.0915C45.2787 66.0658 44.7975 65.9952 44.714 65.7003C44.6306 65.4053 45.2231 65.2876 45.5243 65.2872C45.8255 65.2866 46.2773 65.2855 46.3903 65.6521Z" fill="#FECC84"/>
<path d="M59.6706 55.8864C61.1928 56.9642 61.1308 58.0828 62.9149 59.6022C63.1258 59.7818 62.5075 60.0457 62.3947 60.2882C62.2348 60.6316 61.4064 60.1044 60.9992 60.1101C60.5919 60.1159 60.2006 59.9758 59.8262 59.829C57.7775 59.0256 54.7582 57.743 53.6641 55.8504C53.3907 55.3777 51.4077 52.4857 52.1592 52.474C54.3008 52.4406 55.6903 54.4705 56.3096 54.7331C57.6584 55.3051 58.1046 54.7771 59.6706 55.8864Z" fill="#AD3E3B"/>
<path d="M56.1936 57.1506C53.8982 55.7832 53.2508 50.7514 48.311 51.6901C43.371 52.6289 38.1565 59.7738 37.8403 64.1147C37.5242 68.4556 42.0942 72.4654 45.4508 74.5711C49.3711 77.0306 56.4928 78.9046 61.4763 73.4013C65.8362 68.5866 67.8041 63.1267 63.1254 59.752C60.2763 57.6968 59.953 59.3904 56.1936 57.1506Z" fill="#D34D46"/>
<path d="M65.3024 62.2732C64.8902 64.7049 63.2883 67.3319 61.0618 69.7907C56.0781 75.294 48.9564 73.42 45.0362 70.9606C42.4603 69.3445 39.1699 66.6072 37.9214 63.4593C37.8831 63.6836 37.8558 63.9027 37.8403 64.1147C37.5242 68.4556 42.0942 72.4654 45.4508 74.5711C49.3711 77.0306 56.4928 78.9046 61.4763 73.4013C64.8701 69.6535 66.8139 65.5149 65.3024 62.2732Z" fill="#AD3E3B"/>
<path opacity="0.27" d="M48.0221 54.7339C46.8049 55.026 45.7269 55.723 44.9225 56.61C44.4535 57.1271 44.0614 57.7355 43.9941 58.4052C43.9266 59.0749 44.2505 59.8083 44.9061 60.11C45.0742 60.1873 45.2633 60.2349 45.4502 60.2168C45.7134 60.1912 45.9396 60.0414 46.152 59.8968C47.151 59.2172 48.2075 58.5197 49.4385 58.3553C50.0264 58.2768 50.6292 58.3252 51.2136 58.228C51.798 58.1309 52.3998 57.8404 52.604 57.3293C52.9194 56.5398 52.1583 55.5031 51.465 55.085C50.5086 54.5082 49.0913 54.4773 48.0221 54.7339Z" fill="white"/>
<path opacity="0.27" d="M43.7186 60.8251C43.2795 60.5367 42.6047 60.6916 42.2895 61.0935C41.9742 61.4954 41.9934 62.0664 42.2497 62.5021C42.3853 62.7324 42.6082 62.9459 42.8922 62.9731C43.0981 62.9926 43.3 62.9108 43.4727 62.8061C43.7922 62.6132 44.0545 62.3274 44.1569 61.9894C44.2593 61.6515 44.1851 61.2619 43.9248 61.0049L43.7186 60.8251Z" fill="white"/>
<path d="M55.6167 56.7057C55.6167 56.7057 57.9191 54.3742 59.3836 53.4571C60.848 52.5398 63.8764 51.6206 63.8764 51.6206L64.4841 52.7795C64.4841 52.7795 62.1454 52.983 60.2217 54.1034C58.8773 54.8864 56.1934 57.1505 56.1934 57.1505L55.6167 56.7057Z" fill="#60443E"/>
<path d="M60.2216 54.1033C60.2216 54.1033 64.3918 53.5825 66.8034 55.1726C70.0312 57.3008 71.8525 59.8575 71.8525 59.8575C71.8525 59.8575 67.5276 61.2296 64.6655 59.8388C61.8032 58.4479 59.2939 54.7156 59.2939 54.7156L60.2216 54.1033Z" fill="#436B49"/>
<path opacity="0.27" d="M64.87 55.7663C64.8093 55.7792 64.7471 55.7967 64.7079 55.8395C64.6556 55.8965 64.6552 55.9857 64.6717 56.0673C64.7272 56.3413 64.9421 56.5867 65.1882 56.7618C65.4343 56.9367 65.7136 57.0548 65.9838 57.1865C66.6146 57.494 67.2099 57.8858 67.7437 58.3445C67.9325 58.5068 68.1199 58.6816 68.3474 58.7785C69.0562 59.0807 69.1771 58.3503 69.0412 57.8536C68.9145 57.3904 68.5765 57.1723 68.1645 56.9163C67.1952 56.3136 65.9856 55.5307 64.87 55.7663Z" fill="white"/>
<path d="M107.006 58.0024C106.209 56.639 105.34 55.5327 105.373 54.3311C105.441 51.8586 108.004 45.6644 108.004 45.6644L100.591 43.033C100.591 43.033 97.9346 49.1939 96.1681 51.0636C95.3097 51.9721 93.854 52.253 92.2632 52.7685C89.2398 53.6717 62.5189 105.097 62.5189 105.097L60.0898 110.847C60.0898 110.847 58.4109 114.821 62.346 116.094C65.8011 117.212 66.3146 114.106 68.1042 114.827C69.8939 115.549 68.8529 116.421 69.6491 117.78C70.5805 119.37 74.0992 120.619 75.9559 120.019C77.5434 119.506 77.4148 118.219 79.2675 118.791C81.1203 119.362 79.2175 121.976 82.593 123.282C86.4372 124.771 88.1163 120.797 88.1163 120.797L90.5454 115.047C90.5454 115.047 108.577 60.5369 107.006 58.0024Z" fill="#9ED2F2"/>
<path d="M83.3712 121.44C79.996 120.133 81.8985 117.52 80.0458 116.948C78.193 116.376 78.3215 117.664 76.7342 118.177C74.8775 118.777 71.3587 117.528 70.4274 115.938C69.631 114.578 70.672 113.706 68.8824 112.985C67.0927 112.264 66.5794 115.37 63.1243 114.252C59.189 112.979 60.868 109.004 60.868 109.004L60.0898 110.847C60.0898 110.847 58.4109 114.821 62.346 116.094C65.8011 117.212 66.3146 114.106 68.1042 114.827C69.8939 115.549 68.8529 116.421 69.6491 117.78C70.5805 119.37 74.0992 120.62 75.9559 120.019C77.5434 119.506 77.4148 118.219 79.2675 118.791C81.1203 119.362 79.2176 121.976 82.593 123.282C86.4374 124.771 88.1163 120.797 88.1163 120.797L88.8945 118.955C88.8945 118.955 87.2156 122.929 83.3712 121.44Z" fill="#88B4D3"/>
<path d="M107.007 58.0024C106.21 56.639 105.34 55.5327 105.373 54.3312C105.441 51.8587 108.004 45.6644 108.004 45.6644L104.746 44.5078C104.746 44.5078 102.183 50.702 102.115 53.1744C102.082 54.376 102.951 55.4825 103.748 56.8457C105.32 59.3801 87.2871 113.89 87.2871 113.89L84.858 119.64C84.858 119.64 83.7319 122.304 81.2134 122.452C81.5331 122.759 81.974 123.043 82.593 123.282C86.4373 124.771 88.1163 120.797 88.1163 120.797L90.5454 115.047C90.5454 115.047 108.578 60.5369 107.007 58.0024Z" fill="#88B4D3"/>
<path d="M107.247 47.8875L99.5176 45.1436C98.9078 44.9269 98.6048 44.2981 98.841 43.7391L100.362 40.1385C100.598 39.5793 101.284 39.3017 101.894 39.5181L109.623 42.262C110.233 42.4786 110.536 43.1073 110.3 43.6664L108.779 47.2671C108.543 47.8263 107.856 48.1041 107.247 47.8875Z" fill="#304298"/>
<path d="M107.156 49.3406L98.6069 46.3054C98.3921 46.2292 98.2854 46.0077 98.3686 45.8108L98.4195 45.69C98.5027 45.4929 98.7443 45.3952 98.9591 45.4715L107.508 48.5066C107.723 48.5829 107.83 48.8044 107.746 49.0013L107.695 49.1221C107.612 49.3191 107.371 49.4168 107.156 49.3406Z" fill="#304298"/>
<path d="M101.989 40.4946L101.311 40.2537L99.2776 45.0682L99.9565 45.3091L101.989 40.4946Z" fill="#223466"/>
<path d="M103.462 41.0098L102.783 40.7688L100.749 45.583L101.427 45.824L103.462 41.0098Z" fill="#223466"/>
<path d="M105.138 41.609L104.459 41.3679L102.425 46.1821L103.104 46.4231L105.138 41.609Z" fill="#223466"/>
<path d="M106.778 42.1768L106.1 41.9358L104.066 46.7498L104.745 46.9908L106.778 42.1768Z" fill="#223466"/>
<path d="M108.275 42.7063L107.596 42.4653L105.562 47.2795L106.241 47.5205L108.275 42.7063Z" fill="#223466"/>
<path d="M109.466 43.1311L108.788 42.8901L106.754 47.7043L107.433 47.9453L109.466 43.1311Z" fill="#223466"/>
<path d="M109.583 42.8628L101.425 39.9667C101.316 39.928 101.262 39.8146 101.304 39.7148C101.346 39.615 101.47 39.565 101.579 39.6037L109.736 42.4997C109.845 42.5385 109.9 42.6519 109.858 42.7517C109.816 42.8515 109.692 42.9015 109.583 42.8628Z" fill="#405CC6"/>
<path opacity="0.58" d="M98.1667 50.5657C97.7308 51.3772 97.1627 52.1619 96.3376 52.658C95.9654 52.8817 95.5488 53.042 95.1949 53.2897C94.8413 53.5372 94.5453 53.906 94.5617 54.3137C94.5886 54.9798 95.4666 55.3953 96.1769 55.2518C96.887 55.1085 97.4289 54.5907 97.88 54.0678C98.8915 52.895 99.6795 51.5696 100.313 50.1917C100.527 49.7252 101.171 47.7101 99.9484 47.682C99.1371 47.6635 98.4683 50.004 98.1667 50.5657Z" fill="white"/>
<path opacity="0.58" d="M71.568 114.96C71.4946 115.536 71.4923 116.232 71.8989 116.34C72.1427 116.405 72.4532 116.21 72.6816 115.937C72.9101 115.664 73.0737 115.324 73.2324 114.992C73.815 113.772 75.2823 111.286 73.6238 111.217C72.1285 111.155 71.7391 113.617 71.568 114.96Z" fill="white"/>
<path d="M81.2783 69.9927L71.4937 88.1043L96.3969 96.9456L102.446 77.2338L81.2783 69.9927Z" fill="#304298"/>
<path d="M80.0915 72.189L101.687 79.856L101.159 81.6106L79.2109 73.8186L80.0915 72.189Z" fill="#5974AA"/>
<path d="M73.4407 84.4995L97.6163 93.0825L96.8561 95.4481L72.2715 86.7199L73.4407 84.4995Z" fill="#5974AA"/>
<path opacity="0.58" d="M92.8686 57.4492C92.029 57.3128 91.4492 57.4583 89.9823 60.4662C88.5153 63.4742 68.2349 101.144 67.7707 102.01C67.1063 103.251 66.8822 105.293 68.2067 105.955C69.4435 106.574 70.7199 106.839 72.278 103.958C73.8362 101.076 92.12 62.6988 92.737 61.4265C93.354 60.1543 94.3253 57.6862 92.8686 57.4492Z" fill="white"/>
<path opacity="0.58" d="M62.0441 111.579C62.0017 112.166 62.0525 112.88 62.5416 113.018C62.8347 113.101 63.1869 112.92 63.4358 112.655C63.6849 112.389 63.8521 112.05 64.0141 111.719C64.6091 110.503 66.1522 108.045 64.1863 107.867C62.4137 107.706 62.1429 110.21 62.0441 111.579Z" fill="white"/>
<path d="M4.47623 111.519C3.0903 123.778 4.98594 136.127 6.87778 148.33C7.31524 151.151 7.85595 154.173 10.0175 156.221C12.8504 158.906 17.4288 159.008 21.5022 158.93C50.9103 158.37 80.3186 157.81 109.727 157.249C112.455 157.197 115.805 156.764 116.758 154.42C117.488 152.624 116.345 150.699 115.429 148.977C113.868 146.042 112.881 142.851 112.529 139.602C111.838 133.232 113.569 126.881 114.485 120.534C115.702 112.092 115.473 103.476 113.807 95.0988C111.542 83.7067 106.625 72.5333 107.488 60.9808C102.858 63.2378 97.6592 64.309 92.4926 65.1321C77.0258 67.596 61.1788 68.0437 45.5759 66.4579C40.2677 65.9184 34.9278 65.1297 29.9995 63.243C27.36 62.2324 24.8298 60.8926 22.6539 59.1821C20.7836 57.7115 19.2895 54.6234 17.2124 57.1015C15.9377 58.6224 16.3528 64.1726 15.9725 66.1945C15.4124 69.1704 14.6911 72.1187 13.8978 75.0489C10.6169 87.1678 5.88806 99.0317 4.47623 111.519Z" fill="#E3D8C6"/>
<path d="M115.429 148.976C113.868 146.042 112.881 142.851 112.529 139.602C111.838 133.232 113.569 126.881 114.485 120.534C115.702 112.092 115.473 103.476 113.807 95.0988C111.542 83.7067 106.625 72.5332 107.488 60.9807C103.591 62.8804 99.2904 63.9402 94.9453 64.7189C96.0768 73.2502 99.2569 81.6532 100.952 90.1789C102.618 98.5563 102.847 107.173 101.629 115.615C100.714 121.961 98.9831 128.312 99.6734 134.682C100.026 137.931 101.013 141.122 102.574 144.057C103.49 145.779 104.633 147.704 103.903 149.5C102.95 151.844 99.5993 152.277 96.8715 152.329C67.4634 152.89 38.0551 153.45 8.64682 154.011C8.56533 154.012 8.48318 154.013 8.40137 154.015C8.8093 154.823 9.33154 155.571 10.0174 156.221C12.8503 158.906 17.4287 159.008 21.5021 158.93C50.9102 158.37 80.3185 157.81 109.727 157.249C112.454 157.197 115.805 156.764 116.758 154.42C117.488 152.624 116.345 150.699 115.429 148.976Z" fill="#C9C0B1"/>
<path d="M112.517 139.535C112.345 137.965 112.319 136.396 112.393 134.828C112.228 134.833 112.064 134.842 111.899 134.856C110.133 135.006 108.454 135.614 106.711 135.914C104.02 136.376 101.254 136.096 98.5241 135.919C77.078 134.526 55.8195 139.58 34.3958 141.237C28.4136 141.7 22.3166 141.842 16.3735 140.935C12.9509 140.413 9.07782 138.683 5.45166 138.894C5.8901 142.07 6.3848 145.24 6.87982 148.4C7.32157 151.221 7.86706 154.243 10.0317 156.288C12.8689 158.969 17.4474 159.065 21.5205 158.982C50.9278 158.383 80.3351 157.785 109.743 157.186C112.47 157.13 115.82 156.693 116.769 154.348C117.497 152.551 116.351 150.627 115.432 148.906C113.866 145.973 112.874 142.784 112.517 139.535Z" fill="#F7A037"/>
<path d="M115.429 149.003C114.029 146.37 113.092 143.531 112.659 140.628C112.605 140.274 112.557 139.918 112.518 139.562C112.345 137.992 112.32 136.423 112.393 134.854C112.229 134.86 112.064 134.869 111.9 134.883C110.134 135.033 108.454 135.641 106.711 135.94C104.457 136.328 102.15 136.194 99.8547 136.036C100.307 138.824 101.226 141.549 102.574 144.083C103.491 145.806 104.633 147.731 103.903 149.527C102.951 151.871 99.5998 152.304 96.872 152.356C67.4639 152.917 38.0556 153.477 8.64747 154.037C8.56582 154.039 8.48384 154.04 8.40186 154.041C8.80978 154.85 9.33219 155.598 10.0179 156.248C12.8508 158.932 17.4294 159.035 21.5026 158.957C34.8336 158.703 48.1646 158.449 61.4955 158.195C77.5781 157.868 93.6607 157.54 109.743 157.213C112.471 157.157 115.821 156.72 116.77 154.375C116.859 154.155 116.92 153.933 116.956 153.71C117.182 152.132 116.221 150.492 115.429 149.003Z" fill="#DD8C33"/>
<path d="M37.2222 100.124C39.3994 104.185 40.2011 108.674 41.0446 113.087C41.8882 117.501 42.8278 121.986 45.2397 125.947C47.6516 129.909 51.799 133.333 56.9123 134.133C59.8788 134.596 62.9205 134.16 65.9141 133.85C69.7138 133.456 73.5421 133.268 77.3692 133.287C81.1046 133.305 85.459 133.285 87.7377 130.738C89.0202 129.305 89.2844 127.397 89.4009 125.591C89.6071 122.393 89.4941 119.179 89.064 115.997C87.6083 116.995 86.1525 117.993 84.6967 118.991C84.4051 119.191 84.1082 119.396 83.9063 119.666C83.6199 120.049 83.5541 120.519 83.5013 120.972C83.2367 123.243 83.0396 125.693 81.3452 127.448C79.8305 129.017 77.4204 129.696 75.1071 130.14C69.7849 131.164 64.2447 131.341 58.8488 130.662C56.7339 130.396 54.5999 129.986 52.7597 129.051C49.4389 127.363 47.4984 124.163 46.6311 120.929C45.7636 117.695 45.805 114.34 45.4875 111.032C45.3324 109.415 45.0599 107.733 43.9841 106.401C42.9083 105.069 40.7944 104.223 39.0789 104.895L37.2222 100.124Z" fill="#C9C0B1"/>
<path d="M42.4384 90.9537C42.8719 88.1579 43.4651 85.3698 43.5156 82.5463C43.6172 76.8724 41.5353 71.3792 39.4795 66.0266C40.8336 66.0605 42.2962 66.1291 43.3478 66.9121C44.5299 67.7921 44.8396 69.3025 45.0712 70.6822C46.652 80.1041 48.2177 89.846 45.5636 99.063C44.5506 102.581 42.9255 106.236 44.0254 109.731C43.6 108.38 41.8774 107.021 41.3169 105.55C40.7843 104.153 40.5768 102.864 40.9136 101.425C41.7237 97.9628 41.8923 94.4759 42.4384 90.9537Z" fill="#C9C0B1"/>
<path d="M85.1413 94.633C89.5895 104.232 90.6213 115.132 88.0429 125.29C87.9752 125.557 87.8952 125.839 87.6769 126.026C87.1794 126.452 86.3599 126.115 85.8705 125.681C83.8597 123.899 83.6991 121.033 83.7802 118.47C83.8703 115.624 84.0963 112.781 84.4575 109.953C84.7705 107.502 85.184 105.012 84.6984 102.585C84.3267 100.728 83.4444 98.9959 82.7598 97.2152C80.9676 92.5531 80.5331 87.5592 80.1133 82.6311C80.0485 81.8703 80.0693 81.1158 80.7748 80.7058C81.9052 82.1602 81.2995 85.0848 81.7825 86.8459C82.5263 89.5582 83.9543 92.0719 85.1413 94.633Z" fill="#C9C0B1"/>
<path d="M45.0363 115.547C47.0611 118.068 49.4802 120.362 52.3812 122.014C54.9469 123.476 57.8329 124.406 60.7563 125.102C65.1599 126.151 69.7898 126.692 74.2665 125.947C78.7433 125.202 83.0674 123.053 85.5956 119.586C88.7868 115.208 88.7068 109.455 87.4226 104.324C86.1383 99.1924 83.7844 94.3092 82.7576 89.1295C81.2588 81.5678 82.6596 73.8375 84.3561 66.2744C82.4622 66.4882 80.5644 66.6722 78.6635 66.8263C76.2256 76.478 76.4333 86.6828 79.2716 96.2426C80.5969 100.706 82.4871 105.047 83.2458 109.62C83.5533 111.474 83.6577 113.435 82.8534 115.159C81.5938 117.859 78.4277 119.352 75.372 120.231C70.82 121.542 65.8989 121.972 61.2507 120.985C56.6023 119.998 52.2562 117.516 49.6593 113.846C48.3669 112.02 47.5314 109.96 46.4869 108.005C45.555 106.26 44.4531 104.593 43.5683 102.828C42.098 99.8948 41.2472 96.7273 40.7184 93.5359C39.1107 83.833 41.094 75.342 44.1047 66.3386C42.5098 66.1605 40.9158 65.9526 39.3346 65.6926C38.4133 67.9385 38.1324 70.9694 37.8251 72.5542C36.7089 78.3114 36.0228 84.1602 36.2374 90.0141C36.5696 99.0706 39.1762 108.249 45.0363 115.547Z" fill="#F7A037"/>
<path opacity="0.37" d="M18.9906 79.3133C19.0382 82.853 17.9913 86.3599 16.3185 89.5506C14.5311 92.9602 12.005 96.121 11.1647 99.8246C10.3244 103.528 11.9299 108.131 15.8951 109.178C18.673 109.912 21.7568 108.591 23.5028 106.478C25.2489 104.366 25.8465 101.623 25.8823 98.9731C25.9108 96.8564 25.618 94.7022 26.1686 92.6463C26.7811 90.3594 28.3747 88.4184 29.5736 86.336C32.7158 80.8772 33.319 72.3183 27.1542 68.279C24.852 66.7705 22.2522 66.7197 20.3569 68.7987C17.7003 71.7126 18.9444 75.8848 18.9906 79.3133Z" fill="white"/>
<path opacity="0.37" d="M9.84494 114.403C8.87551 115.55 8.88475 117.134 8.97745 118.583C9.42117 125.523 10.773 132.416 13.045 139.049C13.7147 141.004 14.4869 142.975 15.8667 144.587C17.2465 146.199 19.3444 147.418 21.5787 147.359C21.8916 147.351 22.2349 147.305 22.4414 147.089C22.643 146.879 22.654 146.571 22.6468 146.291C22.5732 143.46 21.6983 140.681 21.6899 137.849C21.6805 134.704 22.736 131.651 23.5634 128.598C24.3908 125.545 24.9934 122.313 24.0865 119.28C22.7621 114.849 14.0567 109.419 9.84494 114.403Z" fill="white"/>
<path d="M93.7641 125.65C93.1404 126.404 92.4798 127.164 92.1781 128.068C91.8764 128.972 92.0215 130.074 92.8136 130.68C93.2585 131.02 93.8401 131.161 94.4015 131.293C96.4987 131.786 98.596 132.279 100.693 132.772C101.411 132.94 102.185 133.106 102.875 132.859C103.27 132.717 103.597 132.45 103.896 132.175C107.139 129.192 108.156 124.713 108.146 120.502C108.141 118.394 109.4 105.754 104.57 109.004C102.888 110.137 99.6386 116.818 98.6676 118.534C97.2575 121.028 95.6167 123.413 93.7641 125.65Z" fill="#C9C0B1"/>
<path d="M57.3276 40.1353C57.5372 40.2913 57.7357 40.475 57.9229 40.6867C58.1104 40.8979 58.2863 41.1049 58.4509 41.3071C58.506 41.2493 58.5697 41.1963 58.6418 41.1476C58.714 41.0986 58.7874 41.0602 58.8618 41.0322C58.9364 41.0041 59.0096 40.9903 59.0815 40.9909C59.1536 40.9912 59.2183 41.013 59.2757 41.0556C59.2981 41.0723 59.3228 41.0981 59.3496 41.1335C59.3765 41.1684 59.3989 41.2073 59.4177 41.2495C59.436 41.2917 59.4447 41.3354 59.4442 41.3804C59.4438 41.4257 59.4282 41.4653 59.3979 41.4995L58.9908 41.9593C58.9525 42.0027 58.9467 42.0479 58.9736 42.0946C59.0008 42.1412 59.03 42.184 59.062 42.2229C59.1803 42.3602 59.2809 42.4816 59.3639 42.5868C59.4467 42.6919 59.5167 42.7812 59.5742 42.8543C59.6315 42.9272 59.6786 42.9862 59.7159 43.031C59.7529 43.0756 59.785 43.1081 59.8126 43.1285C59.8451 43.1527 59.8772 43.1748 59.9092 43.1947C59.9411 43.2148 59.9833 43.2443 60.0358 43.2833L60.0732 43.3112C60.0932 43.3261 60.1178 43.3472 60.1473 43.3748C60.1766 43.4025 60.2133 43.4476 60.2568 43.5105C60.2919 43.5595 60.3147 43.618 60.3249 43.686C60.3348 43.7542 60.3086 43.8238 60.2458 43.8949C60.1912 43.9565 60.1308 43.9989 60.0648 44.022C59.999 44.0449 59.9314 44.0536 59.8621 44.0476C59.793 44.0417 59.7232 44.0244 59.6537 43.9954C59.5841 43.9664 59.5208 43.9302 59.4635 43.8876C59.401 43.8412 59.3501 43.7937 59.3101 43.7453L58.4836 42.7151C58.3966 42.8554 58.3206 42.9809 58.2556 43.0919C58.1904 43.2026 58.1253 43.3137 58.0603 43.4246C57.9897 43.5465 57.9303 43.6532 57.8825 43.7447C57.8346 43.836 57.7932 43.9145 57.7584 43.9797C57.7235 44.0447 57.6936 44.0993 57.669 44.1438C57.6444 44.1879 57.621 44.2225 57.5986 44.2478C57.5664 44.2842 57.5301 44.3192 57.4905 44.3523C57.4508 44.3854 57.411 44.4106 57.3706 44.428C57.3304 44.4456 57.2885 44.453 57.2446 44.451C57.201 44.4487 57.1567 44.4312 57.1118 44.3976C57.0519 44.3532 57.0085 44.3027 56.9813 44.2467C56.9544 44.1906 56.9394 44.133 56.9361 44.0734C56.933 44.014 56.9399 43.9546 56.9571 43.8955C56.9744 43.836 56.9973 43.781 57.0259 43.7302C57.0508 43.688 57.0816 43.6322 57.1182 43.5629C57.155 43.4932 57.1954 43.417 57.2397 43.3344C57.2839 43.2516 57.3295 43.1649 57.3764 43.0748C57.4234 42.9841 57.4681 42.8961 57.5108 42.8106C57.5742 42.683 57.6286 42.5746 57.6745 42.4855C57.7205 42.3962 57.7616 42.3216 57.7983 42.2616C57.8348 42.2014 57.8653 42.153 57.8897 42.1163C57.914 42.0794 57.9354 42.0505 57.9536 42.0301C57.8498 41.8808 57.7434 41.739 57.6344 41.605C57.5255 41.4706 57.4213 41.3487 57.3221 41.2386C57.2228 41.1287 57.131 41.0339 57.0467 40.954C56.962 40.8742 56.8937 40.8144 56.8413 40.7754C56.7738 40.7254 56.7045 40.6832 56.6333 40.6493C56.5619 40.615 56.4916 40.5955 56.4225 40.5894C56.3532 40.5835 56.2849 40.5941 56.2171 40.6215C56.1495 40.6489 56.0842 40.6982 56.0213 40.7692C55.9141 40.8904 55.845 41.0361 55.814 41.2069C55.7833 41.3773 55.7762 41.5569 55.793 41.7461C55.81 41.935 55.8427 42.1261 55.8907 42.3196C55.9388 42.5129 55.9875 42.6942 56.0365 42.8633C56.0571 42.9242 56.048 42.9764 56.0096 43.0199C55.9974 43.0337 55.9802 43.0483 55.958 43.0641C55.9357 43.0798 55.9103 43.0922 55.8816 43.1013C55.8531 43.1103 55.8232 43.1134 55.792 43.1115C55.761 43.1091 55.7317 43.0978 55.7043 43.0774C55.6841 43.0624 55.6703 43.05 55.6625 43.0403C55.54 42.8888 55.4347 42.7164 55.3468 42.5239C55.2587 42.3313 55.1713 42.1364 55.085 41.9395C55.0544 41.8711 55.0328 41.7952 55.0199 41.7115C55.0069 41.628 54.9994 41.5418 54.9973 41.4527C54.9953 41.364 54.9974 41.2746 55.0047 41.1849C55.0115 41.0954 55.0199 41.0121 55.0294 40.936C55.0466 40.8045 55.0895 40.679 55.1579 40.5595C55.2267 40.4396 55.3036 40.3318 55.3886 40.2357C55.5202 40.087 55.6665 39.9767 55.8273 39.9049C55.9883 39.8328 56.1541 39.7951 56.3253 39.7913C56.496 39.7877 56.6671 39.8154 56.8383 39.8745C57.0095 39.9333 57.1727 40.0201 57.3276 40.1353Z" fill="#93746C"/>
<path d="M54.8014 43.5153C54.9086 43.595 54.9766 43.6891 55.0048 43.7976C55.033 43.9059 55.0213 44.0125 54.9693 44.1182C55.002 44.1841 55.0417 44.2782 55.0889 44.4005C55.1359 44.5227 55.1798 44.6636 55.2207 44.8232C55.2618 44.9826 55.2938 45.1534 55.3167 45.3356C55.3397 45.5176 55.3434 45.7026 55.3281 45.8906C55.3131 46.0784 55.2728 46.2629 55.2079 46.4441C55.1425 46.6251 55.0414 46.7935 54.9035 46.9491C54.7862 47.0817 54.6663 47.1844 54.5442 47.2568C54.4223 47.3291 54.3018 47.374 54.1827 47.3917C54.0636 47.4091 53.947 47.402 53.8323 47.3701C53.718 47.3382 53.6108 47.285 53.511 47.2107C53.426 47.1475 53.3539 47.077 53.2951 46.9989C53.1836 46.8629 53.1139 46.7125 53.0861 46.5475C53.0582 46.3827 53.057 46.2119 53.0828 46.0358C53.1083 45.8593 53.1563 45.6825 53.2264 45.505C53.2967 45.3276 53.3754 45.1566 53.463 44.9924C53.5506 44.8279 53.642 44.6747 53.7365 44.5327C53.8313 44.3907 53.915 44.269 53.9882 44.1677C53.9613 44.114 53.9202 44.0538 53.865 43.988C53.8094 43.9218 53.749 43.8651 53.6842 43.8168C53.5394 43.709 53.3805 43.678 53.2076 43.7238C53.0346 43.7697 52.866 43.8853 52.7021 44.0706C52.6069 44.1781 52.5289 44.2909 52.4678 44.4087C52.4071 44.5263 52.3581 44.6449 52.3215 44.7636C52.2847 44.8821 52.2562 44.9986 52.2361 45.1128C52.2158 45.2266 52.2011 45.3332 52.1917 45.4327C52.1787 45.5596 52.16 45.6754 52.1351 45.7805C52.1105 45.8856 52.0729 45.9665 52.0223 46.0238C51.9718 46.0808 51.9236 46.1059 51.8783 46.0987C51.8329 46.0914 51.7925 46.0751 51.7577 46.0491C51.7377 46.0342 51.7193 46.0191 51.7013 46.0042C51.6836 45.989 51.6696 45.9757 51.6592 45.9639C51.6043 45.9042 51.5596 45.8333 51.5253 45.7506C51.4906 45.6682 51.473 45.5829 51.4722 45.4952C51.4781 45.1047 51.5484 44.752 51.6828 44.4365C51.8171 44.1211 52.0101 43.8214 52.261 43.5378C52.3096 43.483 52.3705 43.421 52.4439 43.3522C52.5171 43.2833 52.6006 43.2171 52.6938 43.1539C52.7872 43.0904 52.8894 43.0357 53.0006 42.9895C53.112 42.9431 53.2294 42.9159 53.353 42.9073C53.4765 42.8984 53.6062 42.9135 53.7419 42.9517C53.8775 42.9901 54.0177 43.0632 54.1625 43.1708C54.2797 43.2581 54.3978 43.3703 54.5162 43.5079C54.5475 43.4817 54.5893 43.4663 54.6412 43.4613C54.693 43.4563 54.7465 43.4743 54.8014 43.5153ZM53.9367 46.4348C53.9451 46.4486 53.9544 46.4593 53.9644 46.4667C53.9743 46.4743 53.9856 46.4825 53.9981 46.4918C54.0656 46.542 54.1363 46.5567 54.2104 46.536C54.2848 46.5151 54.3503 46.4728 54.4068 46.4088C54.4961 46.3081 54.5548 46.1877 54.5835 46.0479C54.6122 45.9078 54.6213 45.7631 54.6114 45.6133C54.601 45.4634 54.5761 45.3187 54.5362 45.1791C54.4962 45.0391 54.4529 44.9213 54.4054 44.8254C54.2744 45.0013 54.165 45.1702 54.0774 45.3326C53.9895 45.4949 53.9262 45.6459 53.8872 45.786C53.8481 45.9257 53.8326 46.0509 53.8407 46.1611C53.8485 46.2714 53.8806 46.3627 53.9367 46.4348Z" fill="#93746C"/>
<path d="M48.924 47.749C48.9963 47.8027 49.0759 47.8754 49.1629 47.9666C49.2498 48.0578 49.3682 48.1589 49.5178 48.2704C49.5248 48.1503 49.5276 48.0139 49.5263 47.861C49.5248 47.7083 49.5304 47.5548 49.5424 47.4009C49.5548 47.2467 49.5782 47.1019 49.6132 46.9669C49.6482 46.8314 49.7031 46.7216 49.7781 46.6368C49.8388 46.5682 49.9078 46.5114 49.985 46.4664C50.062 46.4212 50.1387 46.3908 50.2146 46.3752C50.4269 46.3318 50.6092 46.3223 50.7614 46.3466C50.9137 46.371 51.0598 46.4349 51.1997 46.539C51.2621 46.5854 51.3224 46.6386 51.3807 46.6993C51.439 46.7596 51.5026 46.8326 51.5718 46.9182C51.8892 47.2984 52.1221 47.7192 52.2702 48.1807C52.4185 48.6419 52.4728 49.1173 52.4322 49.6074C52.4172 49.7973 52.3692 49.9626 52.2882 50.1034C52.2071 50.244 52.1137 50.3741 52.0085 50.4931C51.9619 50.5457 51.906 50.6017 51.8407 50.6614C51.7755 50.721 51.7162 50.7742 51.6619 50.8214C51.6278 50.8831 51.5986 50.9325 51.5741 50.9694C51.5497 51.0062 51.5214 51.0431 51.4889 51.0797C51.4282 51.1483 51.3676 51.1979 51.3071 51.2289C51.2465 51.2598 51.1873 51.2764 51.1293 51.2788C51.0714 51.2814 51.0148 51.2725 50.9602 51.2525C50.9053 51.2325 50.854 51.2052 50.8066 51.1698C50.7416 51.1217 50.688 51.0663 50.6456 51.0045C50.6032 50.9425 50.5602 50.8802 50.5165 50.8175L48.9446 48.8969C48.8453 48.8076 48.7539 48.7264 48.6701 48.6527C48.5863 48.579 48.5149 48.5031 48.4559 48.4249C48.4394 48.4013 48.4191 48.372 48.3943 48.3366C48.3699 48.3012 48.3521 48.2603 48.3411 48.2143C48.3302 48.168 48.3285 48.1198 48.3366 48.0685C48.3444 48.0177 48.3727 47.9646 48.4212 47.9097C48.4841 47.8387 48.5393 47.7859 48.5865 47.751C48.634 47.7162 48.6772 47.694 48.7163 47.6852C48.7553 47.676 48.7909 47.6778 48.8231 47.6908C48.8556 47.7035 48.889 47.723 48.924 47.749ZM51.0631 47.4506C51.0362 47.4154 50.9948 47.3687 50.9392 47.31C50.8833 47.2513 50.8229 47.1981 50.7581 47.1497C50.6908 47.0997 50.6222 47.0637 50.5523 47.0422C50.4823 47.0203 50.4201 47.0406 50.3655 47.1023C50.2804 47.1984 50.224 47.3053 50.1963 47.4231C50.1686 47.5408 50.1549 47.6605 50.1551 47.782C50.1552 47.9454 50.1646 48.1184 50.1829 48.3012C50.2012 48.4836 50.2304 48.6646 50.2702 48.8442C50.3101 49.0236 50.3621 49.1952 50.4264 49.3588C50.4907 49.522 50.5711 49.6663 50.6674 49.7913C50.7236 49.8633 50.7937 49.9409 50.8772 50.0242C50.9608 50.1072 51.0402 50.1768 51.1151 50.2324C51.1476 50.2564 51.1853 50.2732 51.2287 50.2828C51.2721 50.2923 51.311 50.2776 51.3455 50.2386C51.4447 50.1266 51.5209 49.996 51.5735 49.8477C51.6263 49.6992 51.6594 49.5424 51.6726 49.378C51.686 49.2134 51.6804 49.0431 51.656 48.8675C51.6314 48.6917 51.592 48.519 51.537 48.3493C51.4826 48.1797 51.4143 48.0181 51.333 47.8645C51.2517 47.7112 51.1616 47.5731 51.0631 47.4506Z" fill="#93746C"/>
<path d="M44.3041 48.3091C45.4075 47.1156 46.2895 45.676 46.3987 44.1147C46.4518 43.3563 45.504 39.6136 44.0828 40.5862C43.4612 41.0116 43.2405 42.2954 43.1237 42.9464C42.9697 43.8047 42.9741 44.6872 43.1353 45.5443C43.3197 46.5247 43.7108 47.4742 44.3041 48.3091Z" fill="#846861"/>
<path d="M46.1906 41.8025C47.1454 42.6473 48.3398 43.239 49.5877 43.6527C49.7168 42.3596 49.2223 41.0245 48.261 40.0708C47.7999 39.6133 47.2346 39.2472 46.6156 38.9917C46.2122 38.8253 45.0419 38.3601 44.6145 38.6112C43.72 39.1371 45.7225 41.3881 46.1906 41.8025Z" fill="#846861"/>
</g>
<defs>
<filter id="filter0_d_462_10779" x="0" y="0" width="121" height="167" filterUnits="userSpaceOnUse" color-interpolation-filters="sRGB">
<feFlood flood-opacity="0" result="BackgroundImageFix"/>
<feColorMatrix in="SourceAlpha" type="matrix" values="0 0 0 0 0 0 0 0 0 0 0 0 0 0 0 0 0 0 127 0" result="hardAlpha"/>
<feOffset dy="4"/>
<feGaussianBlur stdDeviation="2"/>
<feComposite in2="hardAlpha" operator="out"/>
<feColorMatrix type="matrix" values="0 0 0 0 0 0 0 0 0 0 0 0 0 0 0 0 0 0 0.25 0"/>
<feBlend mode="normal" in2="BackgroundImageFix" result="effect1_dropShadow_462_10779"/>
<feBlend mode="normal" in="SourceGraphic" in2="effect1_dropShadow_462_10779" result="shape"/>
</filter>
</defs>
</svg>
